<?xml version="1.0" encoding="utf-8"?>
<!-- Generator: Adobe Illustrator 26.5.0, SVG Export Plug-In . SVG Version: 6.00 Build 0)  -->
<svg version="1.1" id="图层_1" xmlns="http://www.w3.org/2000/svg" xmlns:xlink="http://www.w3.org/1999/xlink" x="0px" y="0px"
	 width="23px" height="18px" viewBox="0 0 23 18" style="enable-background:new 0 0 23 18;" xml:space="preserve">
<path id="形状" style="fill-opacity:0.54;" d="M20.1,6.8v2.4v2.1c-0.1,1.6-1.4,2.8-3.1,2.8H4.4c-1.7,0-3.1-1.4-3.1-3.1V7
	c0-1.7,1.4-3.1,3.1-3.1H17C18.6,3.9,19.9,5.2,20.1,6.8z M19.1,7c0-1.2-0.9-2.1-2.1-2.1H4.4C3.2,4.9,2.3,5.8,2.3,7v4
	c0,1.2,0.9,2.1,2.1,2.1H17c1.2,0,2.1-0.9,2.1-2.1V7z M21.9,10.3V7.6c0-0.4-0.3-0.7-0.6-0.7l0,0c-0.4,0-0.7,0.3-0.7,0.7v2.7
	c0,0.4,0.3,0.7,0.7,0.7l0,0C21.7,11,21.9,10.7,21.9,10.3z"/>
</svg>
