<?xml version="1.0" encoding="utf-8"?>
<!-- Generator: Adobe Illustrator 26.5.0, SVG Export Plug-In . SVG Version: 6.00 Build 0)  -->
<svg version="1.1" id="图层_1" xmlns="http://www.w3.org/2000/svg" xmlns:xlink="http://www.w3.org/1999/xlink" x="0px" y="0px"
	 width="24px" height="24px" viewBox="0 0 24 24" style="enable-background:new 0 0 24 24;" xml:space="preserve">
<style type="text/css">
	.st0{fill-rule:evenodd;clip-rule:evenodd;}
</style>
<path id="path-1_00000085239111695920595410000007290323264702245514_" class="st0" d="M21.028,18.81l-4.187-4.187
	c0.488-0.322,1.059-0.496,1.659-0.496c0.809,0,1.569,0.314,2.139,0.884C21.669,16.043,21.799,17.637,21.028,18.81 M16.363,19.289
	c-0.571-0.571-0.885-1.33-0.885-2.139c0-0.6,0.174-1.171,0.495-1.659l4.186,4.186c-0.488,0.321-1.059,0.495-1.659,0.495
	C17.692,20.172,16.933,19.858,16.363,19.289 M21.507,14.143C20.678,13.314,19.589,12.9,18.5,12.9c-1.089,0-2.177,0.414-3.005,1.243
	c-1.66,1.658-1.66,4.356,0,6.014c0.828,0.828,1.917,1.243,3.005,1.243c1.089,0,2.178-0.415,3.007-1.244
	C23.165,18.499,23.165,15.802,21.507,14.143 M12.922,19.5H4.7V18c0-1.883,4.429-3.3,7.3-3.3c0.288,0,0.612,0.022,0.944,0.054
	c0.216-0.5,0.498-0.972,0.846-1.401C13.157,13.262,12.542,13.2,12,13.2c-2.973,0-8.8,1.449-8.8,4.8v2.2C3.2,20.614,3.586,21,4,21
	h9.832C13.453,20.543,13.149,20.038,12.922,19.5 M12,4.5c-1.599,0-2.9,1.301-2.9,2.9s1.301,2.9,2.9,2.9c1.6,0,2.901-1.301,2.901-2.9
	S13.6,4.5,12,4.5 M12,11.8c-2.427,0-4.4-1.974-4.4-4.4S9.573,3,12,3s4.401,1.974,4.401,4.4S14.427,11.8,12,11.8"/>
</svg>
