<?xml version="1.0" encoding="utf-8"?>
<!-- Generator: Adobe Illustrator 26.5.0, SVG Export Plug-In . SVG Version: 6.00 Build 0)  -->
<svg version="1.1" id="图层_1" xmlns="http://www.w3.org/2000/svg" xmlns:xlink="http://www.w3.org/1999/xlink" x="0px" y="0px"
	 width="30px" height="26px" viewBox="0 0 30 26" style="enable-background:new 0 0 30 26;" xml:space="preserve">
<path style="fill:#FFFFFF;" d="M30,4.8v17c0,2.355-1.912,4.2-4.352,4.2H4.2C1.884,26,0,24.116,0,21.8v-17C0,2.153,2.153,0,4.8,0
	h20.4C27.847,0,30,2.153,30,4.8z"/>
<g>
	<path style="fill:#369EFF;" d="M25.2,3H4.8C3.806,3,3,3.806,3,4.8v17C3,22.463,3.537,23,4.2,23h1.352
		c0.414,0,0.768-0.284,0.867-0.686C6.805,20.745,8.212,19.58,9.9,19.58c1.688,0,3.095,1.165,3.481,2.734
		C13.48,22.716,13.83,23,14.244,23h1.341c0.585,0,0.935-0.284,1.034-0.686c0.386-1.569,1.793-2.734,3.481-2.734
		s3.095,1.165,3.481,2.734C23.68,22.716,24.034,23,24.448,23h1.2C26.465,23,27,22.463,27,21.8v-17C27,3.806,26.194,3,25.2,3z
		 M8.77,9.153h8.764v-1.94c0-0.224,0.131-0.427,0.335-0.52c0.204-0.092,0.444-0.056,0.612,0.093l3.355,2.966
		c0.179,0.157,0.238,0.406,0.156,0.63c-0.084,0.222-0.296,0.368-0.533,0.368H8.77c-0.079,0-0.153-0.016-0.222-0.044
		c-0.331-0.097-0.577-0.392-0.577-0.754C7.971,9.511,8.329,9.153,8.77,9.153z M21.23,14.504h-8.763v1.94
		c0,0.224-0.131,0.427-0.336,0.52c-0.204,0.092-0.444,0.056-0.612-0.093l-3.355-2.966c-0.179-0.157-0.238-0.406-0.156-0.63
		c0.084-0.222,0.296-0.368,0.533-0.368H21.23c0.079,0,0.153,0.016,0.222,0.044c0.33,0.097,0.576,0.392,0.576,0.754
		C22.029,14.146,21.67,14.504,21.23,14.504z"/>
</g>
</svg>
