<?xml version="1.0" encoding="utf-8"?>
<!-- Generator: Adobe Illustrator 26.5.0, SVG Export Plug-In . SVG Version: 6.00 Build 0)  -->
<svg version="1.1" id="图层_1" xmlns="http://www.w3.org/2000/svg" xmlns:xlink="http://www.w3.org/1999/xlink" x="0px" y="0px"
	 width="376px" height="186px" viewBox="0 0 376 186" style="enable-background:new 0 0 376 186;" xml:space="preserve">
<style type="text/css">
	.st0{fill:#E0E0E0;}
</style>
<path class="st0" d="M368,186H8c-2.1,0-4.1-0.8-5.6-2.3c-1.5-1.5-2.3-3.4-2.3-5.5V23.9c0-2.1,0.8-4,2.3-5.5c1.5-1.5,3.5-2.3,5.6-2.3
	l158.2,0c4.8,0,9.4-2.2,12.4-5.9l6.9-8.4c0.7-0.8,1.6-1.3,2.7-1.5l0,0c1.1-0.1,2.1,0.2,2.9,0.9c0.2,0.2,0.4,0.4,0.6,0.6l6.9,8.4
	c3.1,3.7,7.6,5.9,12.4,5.9l157.2,0c2.1,0,4.1,0.8,5.6,2.3c1.5,1.5,2.3,3.4,2.3,5.5v154.4c0,2.1-0.8,4-2.3,5.5S370.2,186,368,186z
	 M188.2,1.4c-0.8,0.1-1.5,0.5-2,1.1l-6.9,8.4c-3.2,4-8,6.3-13.2,6.3L8,17.1c-1.9,0-3.6,0.7-4.9,2c-1.3,1.3-2,3-2,4.7v154.4
	c0,1.8,0.7,3.5,2,4.7c1.3,1.3,3.1,2,4.9,2h360c1.9,0,3.6-0.7,4.9-2c1.3-1.3,2-3,2-4.7V23.9c0-1.8-0.7-3.5-2-4.7
	c-1.3-1.3-3.1-2-4.9-2l-157.2,0c-5.1,0-9.9-2.3-13.2-6.3l-6.9-8.4c-0.1-0.2-0.3-0.3-0.4-0.4C189.8,1.5,189,1.3,188.2,1.4L188.2,1.4z
	"/>
</svg>
