<?xml version="1.0" encoding="utf-8"?>
<!-- Generator: Adobe Illustrator 26.5.0, SVG Export Plug-In . SVG Version: 6.00 Build 0)  -->
<svg version="1.1" id="图层_1" xmlns="http://www.w3.org/2000/svg" xmlns:xlink="http://www.w3.org/1999/xlink" x="0px" y="0px"
	 width="24px" height="24px" viewBox="0 0 24 24" style="enable-background:new 0 0 24 24;" xml:space="preserve">
<style type="text/css">
	.st0{fill-rule:evenodd;clip-rule:evenodd;}
</style>
<path id="path-1_00000029034245549274679730000012122878078613873313_" class="st0" d="M12,2c5.523,0,10,4.478,10,10
	c0,5.523-4.477,10-10,10S2,17.523,2,12C2,6.478,6.477,2,12,2z M9.655,8.595c-0.293-0.293-0.768-0.293-1.061,0
	c-0.293,0.293-0.293,0.768,0,1.061l0,0L10.939,12l-2.345,2.345c-0.293,0.293-0.293,0.768,0,1.061
	c0.147,0.146,0.339,0.219,0.531,0.219s0.384-0.073,0.53-0.219l0,0L12,13.061l2.344,2.345c0.147,0.146,0.339,0.219,0.531,0.219
	s0.384-0.073,0.53-0.219c0.293-0.293,0.293-0.768,0-1.061l0,0L13.06,12l2.345-2.344c0.293-0.293,0.293-0.768,0-1.061
	c-0.293-0.293-0.768-0.293-1.061,0l0,0L12,10.94L9.655,8.595z"/>
</svg>
