<?xml version="1.0" encoding="utf-8"?>
<!-- Generator: Adobe Illustrator 26.5.0, SVG Export Plug-In . SVG Version: 6.00 Build 0)  -->
<svg version="1.1" id="图层_1" xmlns="http://www.w3.org/2000/svg" xmlns:xlink="http://www.w3.org/1999/xlink" x="0px" y="0px"
	 width="32px" height="32px" viewBox="0 0 32 32" style="enable-background:new 0 0 32 32;" xml:space="preserve">
<style type="text/css">
	.st0{opacity:0.8;}
	.st1{fill-rule:evenodd;clip-rule:evenodd;}
</style>
<g class="st0">
	<path id="path-1_00000085973328920242590790000001270063040273013131_" class="st1" d="M17.414,16l7.293-7.293
		c0.391-0.391,0.391-1.023,0-1.413c-0.391-0.391-1.024-0.391-1.415,0l-7.293,7.292L8.707,7.293c-0.391-0.391-1.024-0.391-1.415,0
		c-0.391,0.391-0.391,1.023,0,1.413L14.586,16l-7.293,7.293c-0.391,0.391-0.391,1.023,0,1.413C7.489,24.903,7.745,25,7.999,25
		c0.256,0,0.512-0.097,0.708-0.293l7.292-7.292l7.293,7.292C23.489,24.903,23.745,25,23.999,25c0.256,0,0.512-0.097,0.708-0.293
		c0.391-0.391,0.391-1.023,0-1.413L17.414,16z"/>
</g>
</svg>
