<?xml version="1.0" encoding="utf-8"?>
<!-- Generator: Adobe Illustrator 26.5.0, SVG Export Plug-In . SVG Version: 6.00 Build 0)  -->
<svg version="1.1" id="图层_1" xmlns="http://www.w3.org/2000/svg" xmlns:xlink="http://www.w3.org/1999/xlink" x="0px" y="0px"
	 width="32px" height="32px" viewBox="0 0 32 32" style="enable-background:new 0 0 32 32;" xml:space="preserve">
<style type="text/css">
	.st0{fill:#FFFFFF;}
	.st1{fill-rule:evenodd;clip-rule:evenodd;fill:#27C268;}
	.st2{fill-rule:evenodd;clip-rule:evenodd;fill:#FFFFFF;}
</style>
<path class="st0" d="M16,31c-8.271,0-15-6.73-15-15S7.729,1,16,1s15,6.729,15,15S24.271,31,16,31z M16,3.5
	C9.107,3.5,3.5,9.107,3.5,16c0,6.893,5.607,12.5,12.5,12.5c6.893,0,12.5-5.607,12.5-12.5C28.5,9.107,22.893,3.5,16,3.5z"/>
<g>
	<circle id="path-1_00000078011394040808703930000004195567274880044430_" class="st1" cx="16" cy="16" r="12.5"/>
</g>
<path id="路径" class="st2" d="M23.383,12.68l-8.122,8.122c-0.205,0.204-0.474,0.309-0.742,0.309s-0.537-0.104-0.742-0.309
	l-4.109-4.107c-0.411-0.411-0.411-1.075,0-1.485c0.41-0.41,1.074-0.41,1.484,0l3.367,3.366l7.38-7.38
	c0.41-0.411,1.075-0.411,1.484,0C23.793,11.605,23.793,12.27,23.383,12.68z"/>
</svg>
