<?xml version="1.0" encoding="utf-8"?>
<!-- Generator: Adobe Illustrator 26.5.0, SVG Export Plug-In . SVG Version: 6.00 Build 0)  -->
<svg version="1.1" id="图层_1" xmlns="http://www.w3.org/2000/svg" xmlns:xlink="http://www.w3.org/1999/xlink" x="0px" y="0px"
	 width="22px" height="22px" viewBox="0 0 22 22" style="enable-background:new 0 0 22 22;" xml:space="preserve">
<style type="text/css">
	.st0{fill-rule:evenodd;clip-rule:evenodd;}
</style>
<path id="path-1_00000026141742585642900870000000378581310451511170_" class="st0" d="M11.67,3.43
	c3.655,0.322,6.576,3.244,6.897,6.9h-6.895L11.67,3.43z M19.938,11c0-4.925-4.009-8.938-8.938-8.938
	c-0.178,0-0.349,0.071-0.474,0.197C10.4,2.384,10.33,2.554,10.33,2.733L10.331,11c0,0.366,0.3,0.67,0.67,0.67h8.265
	C19.637,11.67,19.938,11.366,19.938,11z M11,19.938c-4.928,0-8.938-4.013-8.938-8.938c0-3.468,2.033-6.649,5.181-8.115
	c0.336-0.152,0.735-0.009,0.89,0.331C8.289,3.546,8.144,3.948,7.808,4.1C5.133,5.343,3.403,8.051,3.403,11
	c0,4.192,3.408,7.597,7.597,7.597c2.883,0,5.482-1.6,6.784-4.174l0.098-0.206c0.157-0.331,0.556-0.474,0.892-0.313
	c0.334,0.152,0.478,0.554,0.321,0.885l-0.114,0.241C17.449,18.061,14.391,19.938,11,19.938L11,19.938z"/>
</svg>
