<?xml version="1.0" encoding="utf-8"?>
<!-- Generator: Adobe Illustrator 26.5.0, SVG Export Plug-In . SVG Version: 6.00 Build 0)  -->
<svg version="1.1" id="图层_1" xmlns="http://www.w3.org/2000/svg" xmlns:xlink="http://www.w3.org/1999/xlink" x="0px" y="0px"
	 width="24px" height="24px" viewBox="0 0 24 24" style="enable-background:new 0 0 24 24;" xml:space="preserve">
<style type="text/css">
	.st0{fill-rule:evenodd;clip-rule:evenodd;}
</style>
<path id="path-1_00000034047739624745349020000014603701803237356211_" class="st0" d="M14,17c-0.414,0-0.75-0.335-0.75-0.75v-7
	c0-0.414,0.336-0.75,0.75-0.75s0.75,0.336,0.75,0.75v7C14.75,16.665,14.414,17,14,17z M10,17c-0.414,0-0.75-0.335-0.75-0.75v-7
	C9.25,8.836,9.586,8.5,10,8.5s0.75,0.336,0.75,0.75v7C10.75,16.665,10.414,17,10,17z M18.75,9.25v10c0,1.241-1.009,2.25-2.25,2.25
	h-9c-1.241,0-2.25-1.009-2.25-2.25v-10C5.25,8.836,5.586,8.5,6,8.5s0.75,0.336,0.75,0.75v10C6.75,19.664,7.086,20,7.5,20h9
	c0.414,0,0.75-0.336,0.75-0.75v-10c0-0.414,0.336-0.75,0.75-0.75S18.75,8.836,18.75,9.25z M8.25,4.625C8.25,4.281,8.53,4,8.875,4
	h6.25c0.345,0,0.625,0.281,0.625,0.625v0.75h-7.5V4.625z M20.25,5.375h-3v-0.75c0-1.171-0.953-2.125-2.125-2.125h-6.25
	C7.703,2.5,6.75,3.454,6.75,4.625v0.75h-3C3.336,5.375,3,5.711,3,6.125c0,0.415,0.336,0.75,0.75,0.75h16.5
	c0.414,0,0.75-0.335,0.75-0.75C21,5.711,20.664,5.375,20.25,5.375L20.25,5.375z"/>
</svg>
