<?xml version="1.0" encoding="utf-8"?>
<!-- Generator: Adobe Illustrator 26.5.0, SVG Export Plug-In . SVG Version: 6.00 Build 0)  -->
<svg version="1.1" id="图层_1" xmlns="http://www.w3.org/2000/svg" xmlns:xlink="http://www.w3.org/1999/xlink" x="0px" y="0px"
	 width="22px" height="22px" viewBox="0 0 22 22" style="enable-background:new 0 0 22 22;" xml:space="preserve">
<style type="text/css">
	.st0{fill-rule:evenodd;clip-rule:evenodd;}
</style>
<path id="path-1_00000054963764901276191950000002636027361243315842_" class="st0" d="M18.186,16.774h-3.943
	c-0.133,0-0.24-0.108-0.239-0.241l0.042-7.04c0.001-0.133,0.11-0.24,0.242-0.238l3.9,0.041c0.131,0.002,0.236,0.108,0.236,0.239v7
	C18.425,16.667,18.318,16.774,18.186,16.774 M18.287,7.969h-4.148c-0.784,0-1.421,0.637-1.421,1.422v7.292
	c0,0.784,0.637,1.422,1.421,1.422h4.148c0.784,0,1.421-0.638,1.421-1.422V9.391C19.708,8.606,19.071,7.969,18.287,7.969
	 M10.682,15.813c0.378,0.001-6.337-0.001-6.337-0.001c-1.133-0.005-2.053-0.929-2.053-2.062V5.959c0-1.137,0.925-2.062,2.062-2.062
	h13.292c1.138,0,2.062,0.926,2.062,2.062c0,0.38-0.308,0.688-0.688,0.688c-0.38,0-0.688-0.308-0.688-0.688
	c0-0.379-0.308-0.688-0.688-0.688H4.354c-0.379,0-0.688,0.309-0.688,0.688v7.792c0,0.379,0.309,0.688,0.688,0.688h6.325
	c0.379,0,0.688,0.308,0.688,0.688C11.367,15.504,11.059,15.811,10.682,15.813 M10.682,16.729c0.378,0.001,0.685,0.308,0.685,0.687
	c0,0.379-0.308,0.688-0.688,0.688H4.354c-0.379,0-0.688-0.308-0.688-0.688s0.308-0.688,0.688-0.688
	C4.354,16.729,11.059,16.728,10.682,16.729"/>
</svg>
