<?xml version="1.0" encoding="utf-8"?>
<!-- Generator: Adobe Illustrator 26.5.0, SVG Export Plug-In . SVG Version: 6.00 Build 0)  -->
<svg version="1.1" id="图层_1" xmlns="http://www.w3.org/2000/svg" xmlns:xlink="http://www.w3.org/1999/xlink" x="0px" y="0px"
	 width="32px" height="32px" viewBox="0 0 32 32" style="enable-background:new 0 0 32 32;" xml:space="preserve">
<style type="text/css">
	.st0{fill:#FFFFFF;}
	.st1{fill-rule:evenodd;clip-rule:evenodd;fill:#FF4D4F;}
</style>
<path class="st0" d="M16,31c-8.271,0-15-6.73-15-15S7.729,1,16,1s15,6.729,15,15S24.271,31,16,31z M16,3.5
	C9.107,3.5,3.5,9.107,3.5,16c0,6.893,5.607,12.5,12.5,12.5c6.893,0,12.5-5.607,12.5-12.5C28.5,9.107,22.893,3.5,16,3.5z"/>
<path class="st1" d="M16,3.5c6.904,0,12.5,5.597,12.5,12.5S22.904,28.5,16,28.5S3.5,22.904,3.5,16S9.096,3.5,16,3.5z"/>
<path class="st0" d="M21.038,19.48c0.208,0.208,0.323,0.484,0.323,0.778c0,0.295-0.115,0.571-0.323,0.779
	c-0.207,0.208-0.484,0.323-0.779,0.323c-0.293,0-0.569-0.114-0.778-0.322l-3.482-3.481l-3.479,3.48
	c-0.417,0.415-1.142,0.417-1.559,0c-0.208-0.208-0.322-0.484-0.322-0.779c0-0.294,0.115-0.57,0.323-0.778L14.44,16l-3.478-3.479
	c-0.208-0.208-0.323-0.485-0.323-0.779c0-0.294,0.114-0.571,0.323-0.779c0.414-0.416,1.139-0.417,1.558,0l3.479,3.48l3.481-3.479
	c0.208-0.208,0.485-0.323,0.779-0.323c0.001,0,0.001,0,0.001,0c0.295,0,0.571,0.115,0.778,0.323
	c0.208,0.208,0.323,0.485,0.323,0.779c0,0.294-0.115,0.571-0.323,0.779L17.557,16L21.038,19.48z"/>
</svg>
