<?xml version="1.0" encoding="utf-8"?>
<!-- Generator: Adobe Illustrator 26.5.0, SVG Export Plug-In . SVG Version: 6.00 Build 0)  -->
<svg version="1.1" id="图层_1" xmlns="http://www.w3.org/2000/svg" xmlns:xlink="http://www.w3.org/1999/xlink" x="0px" y="0px"
	 width="18px" height="18px" viewBox="0 0 18 18" style="enable-background:new 0 0 18 18;" xml:space="preserve">
<style type="text/css">
	.st0{fill-rule:evenodd;clip-rule:evenodd;}
</style>
<path id="path-1_00000166639632550938965080000003232656124043604153_" class="st0" d="M13,9.4c-0.1,0.2-0.3,0.3-0.6,0.3h-1.6v3.2
	c0,0.3-0.3,0.6-0.6,0.6H7.8c-0.3,0-0.6-0.3-0.6-0.6V9.7H5.6C5.3,9.7,5.1,9.6,5,9.4C4.9,9.2,4.9,9,5,8.8l3.4-3.3
	C8.6,5.4,8.8,5.3,9,5.3c0.2,0,0.4,0.1,0.5,0.2L13,8.8c0.1,0.1,0.1,0.2,0.1,0.3C13.1,9.2,13.1,9.3,13,9.4z"/>
</svg>
