<?xml version="1.0" encoding="utf-8"?>
<!-- Generator: Adobe Illustrator 26.5.0, SVG Export Plug-In . SVG Version: 6.00 Build 0)  -->
<svg version="1.1" id="图层_1" xmlns="http://www.w3.org/2000/svg" xmlns:xlink="http://www.w3.org/1999/xlink" x="0px" y="0px"
	 width="32px" height="32px" viewBox="0 0 32 32" style="enable-background:new 0 0 32 32;" xml:space="preserve">
<style type="text/css">
	.st0{fill-rule:evenodd;clip-rule:evenodd;}
</style>
<path id="path-1_00000066474076041529738370000007869711923893992363_" class="st0" d="M26.8,9.333H5.2C4.536,9.333,4,8.737,4,8
	s0.536-1.333,1.2-1.333h21.6C27.464,6.667,28,7.263,28,8S27.462,9.333,26.8,9.333z M28,16c0-0.737-0.536-1.333-1.2-1.333H5.2
	C4.536,14.667,4,15.263,4,16s0.536,1.333,1.2,1.333h21.6C27.462,17.333,28,16.737,28,16z M28,24c0-0.737-0.536-1.333-1.2-1.333H5.2
	C4.536,22.667,4,23.263,4,24s0.536,1.333,1.2,1.333h21.6C27.462,25.333,28,24.737,28,24z"/>
</svg>
