<?xml version="1.0" encoding="utf-8"?>
<!-- Generator: Adobe Illustrator 26.5.0, SVG Export Plug-In . SVG Version: 6.00 Build 0)  -->
<svg version="1.1" id="图层_1" xmlns="http://www.w3.org/2000/svg" xmlns:xlink="http://www.w3.org/1999/xlink" x="0px" y="0px"
	 width="32px" height="32px" viewBox="0 0 32 32" style="enable-background:new 0 0 32 32;" xml:space="preserve">
<style type="text/css">
	.st0{fill-rule:evenodd;clip-rule:evenodd;}
</style>
<path id="path-1_00000137836887908358595810000013452104736618740908_" class="st0" d="M7,27.999h18c1.653,0,3-1.347,3-3v-3.333
	c0-0.552-0.448-1-1-1s-1,0.448-1,1v3.333c0,0.552-0.448,1-1,1H7c-0.551,0-1-0.448-1-1v-18c0-0.551,0.449-1,1-1h18
	c0.552,0,1,0.449,1,1v3.333c0,0.552,0.448,1,1,1s1-0.448,1-1V6.999c0-1.653-1.347-3-3-3H7c-1.653,0-3,1.347-3,3v18
	C4,26.653,5.347,27.999,7,27.999 M10.335,14.999h10.252l-4.032-4.032c-0.391-0.391-0.391-1.024,0-1.415s1.024-0.391,1.415,0
	l5.739,5.74c0.093,0.092,0.165,0.203,0.216,0.325c0.101,0.243,0.101,0.52,0,0.764c-0.051,0.123-0.123,0.232-0.216,0.324
	l-5.739,5.741c-0.196,0.195-0.451,0.292-0.708,0.292c-0.256,0-0.513-0.097-0.707-0.292c-0.391-0.391-0.391-1.024,0-1.415
	l4.032-4.033H10.335c-0.552,0-1-0.448-1-1C9.335,15.447,9.783,14.999,10.335,14.999"/>
</svg>
