<?xml version="1.0" encoding="utf-8"?>
<!-- Generator: Adobe Illustrator 26.5.0, SVG Export Plug-In . SVG Version: 6.00 Build 0)  -->
<svg version="1.1" id="图层_1" xmlns="http://www.w3.org/2000/svg" xmlns:xlink="http://www.w3.org/1999/xlink" x="0px" y="0px"
	 width="22px" height="22px" viewBox="0 0 22 22" style="enable-background:new 0 0 22 22;" xml:space="preserve">
<style type="text/css">
	.st0{fill-rule:evenodd;clip-rule:evenodd;}
</style>
<path id="path-1_00000178196338878808804230000014889792948867937708_" class="st0" d="M18.333,18.563
	c0-0.376-0.308-0.688-0.688-0.688H4.354c-0.379,0-0.687,0.312-0.687,0.688s0.308,0.688,0.687,0.688h13.292
	C18.025,19.25,18.333,18.938,18.333,18.563z M17.215,9.653c-0.269,0.266-0.703,0.266-0.972,0l-4.556-4.556v10.487
	c0,0.376-0.308,0.688-0.688,0.688s-0.688-0.312-0.688-0.688V5.097L5.757,9.653c-0.269,0.266-0.703,0.266-0.972,0
	c-0.269-0.266-0.269-0.706,0-0.972l5.729-5.729C10.648,2.814,10.824,2.75,11,2.75s0.352,0.064,0.486,0.202l5.729,5.729
	C17.484,8.947,17.484,9.387,17.215,9.653L17.215,9.653z"/>
</svg>
