<?xml version="1.0" encoding="utf-8"?>
<!-- Generator: Adobe Illustrator 26.5.0, SVG Export Plug-In . SVG Version: 6.00 Build 0)  -->
<svg version="1.1" id="图层_1" xmlns="http://www.w3.org/2000/svg" xmlns:xlink="http://www.w3.org/1999/xlink" x="0px" y="0px"
	 width="24px" height="24px" viewBox="0 0 24 24" style="enable-background:new 0 0 24 24;" xml:space="preserve">
<style type="text/css">
	.st0{fill-rule:evenodd;clip-rule:evenodd;fill:#777777;}
</style>
<path id="path-1_00000101789964712325861490000016778472354036333735_" class="st0" d="M12,2c5.523,0,10,4.478,10,10
	c0,5.523-4.477,10-10,10C6.478,22,2,17.523,2,12C2,6.478,6.478,2,12,2z M12.49,15.631c-0.518,0-0.937,0.42-0.937,0.938
	c0,0.518,0.419,0.938,0.937,0.938c0.518,0,0.939-0.42,0.939-0.938C13.429,16.051,13.008,15.631,12.49,15.631z M11.998,6.74
	c-1.791,0-3.248,1.459-3.248,3.251c0,0.414,0.336,0.75,0.75,0.75s0.75-0.336,0.75-0.75c0-0.965,0.784-1.751,1.748-1.751
	c0.966,0,1.752,0.786,1.752,1.751c0,0.326-0.132,0.646-0.368,0.882l0,0l-0.56,0.572c-0.499,0.506-0.947,1.061-0.947,2.296
	c0,0.414,0.336,0.75,0.75,0.75s0.75-0.336,0.75-0.75c0-0.691,0.167-0.89,0.516-1.244l0,0l0.557-0.569
	c0.51-0.51,0.802-1.215,0.802-1.937C15.25,8.199,13.791,6.74,11.998,6.74z"/>
</svg>
