<?xml version="1.0" encoding="utf-8"?>
<!-- Generator: Adobe Illustrator 26.5.0, SVG Export Plug-In . SVG Version: 6.00 Build 0)  -->
<svg version="1.1" id="图层_1" xmlns="http://www.w3.org/2000/svg" xmlns:xlink="http://www.w3.org/1999/xlink" x="0px" y="0px"
	 width="22px" height="22px" viewBox="0 0 22 22" style="enable-background:new 0 0 22 22;" xml:space="preserve">
<style type="text/css">
	.st0{fill-rule:evenodd;clip-rule:evenodd;}
</style>
<path id="path-1_00000103260553563515638770000009574447569796873109_" class="st0" d="M8.478,12.569h5.044v4.421
	c0,0.237,0.193,0.43,0.431,0.43h2.265c0.237,0,0.431-0.193,0.431-0.43v-6.113h2.401c0.18,0,0.338-0.109,0.403-0.276
	c0.064-0.166,0.019-0.352-0.114-0.472l-8.05-7.287c-0.158-0.143-0.42-0.143-0.577,0l-8.05,7.287
	c-0.133,0.12-0.177,0.306-0.113,0.473c0.065,0.166,0.223,0.275,0.402,0.275h2.401v6.113c0,0.237,0.193,0.43,0.431,0.43h2.265
	c0.237,0,0.431-0.193,0.431-0.43V12.569z M16.218,18.792h-2.265c-0.995,0-1.806-0.808-1.806-1.801v-3.048H9.853v3.048
	c0,0.994-0.81,1.801-1.806,1.801H5.782c-0.996,0-1.806-0.808-1.806-1.801v-4.742H2.951c-0.753,0-1.414-0.453-1.686-1.153
	C0.998,10.407,1.188,9.61,1.737,9.113l8.05-7.287c0.664-0.602,1.759-0.602,2.426-0.001l8.05,7.287
	c0.549,0.497,0.739,1.293,0.472,1.982c-0.272,0.701-0.933,1.153-1.686,1.153h-1.026v4.742
	C18.024,17.984,17.213,18.792,16.218,18.792L16.218,18.792z"/>
</svg>
