<?xml version="1.0" encoding="utf-8"?>
<!-- Generator: Adobe Illustrator 26.5.0, SVG Export Plug-In . SVG Version: 6.00 Build 0)  -->
<svg version="1.1" id="图层_1" xmlns="http://www.w3.org/2000/svg" xmlns:xlink="http://www.w3.org/1999/xlink" x="0px" y="0px"
	 width="22px" height="22px" viewBox="0 0 22 22" style="enable-background:new 0 0 22 22;" xml:space="preserve">
<style type="text/css">
	.st0{fill-rule:evenodd;clip-rule:evenodd;}
</style>
<path id="path-1_00000041978464937637660270000007268497469300596887_" class="st0" d="M16.218,18.792h-2.265
	c-0.995,0-1.806-0.808-1.806-1.801v-3.048H9.853v3.048c0,0.994-0.81,1.801-1.806,1.801H5.782c-0.996,0-1.806-0.808-1.806-1.801
	v-4.742H2.951c-0.753,0-1.414-0.453-1.686-1.153C0.998,10.407,1.188,9.61,1.737,9.113l8.05-7.287
	c0.664-0.602,1.759-0.602,2.426-0.001l8.05,7.287c0.549,0.497,0.739,1.293,0.472,1.982c-0.272,0.701-0.933,1.153-1.686,1.153h-1.026
	v4.742C18.024,17.984,17.213,18.792,16.218,18.792L16.218,18.792z"/>
</svg>
