<?xml version="1.0" encoding="utf-8"?>
<!-- Generator: Adobe Illustrator 26.5.0, SVG Export Plug-In . SVG Version: 6.00 Build 0)  -->
<svg version="1.1" id="图层_1" xmlns="http://www.w3.org/2000/svg" xmlns:xlink="http://www.w3.org/1999/xlink" x="0px" y="0px"
	 width="128px" height="108px" viewBox="0 0 128 108" style="enable-background:new 0 0 128 108;" xml:space="preserve">
<style type="text/css">
	.st0{fill-rule:evenodd;clip-rule:evenodd;fill:#E2F1FF;}
	.st1{fill:#0F87F7;}
	.st2{fill:#E2F1FF;}
	.st3{fill-rule:evenodd;clip-rule:evenodd;fill:#0F87F7;}
</style>
<path class="st0" d="M116,36H75v24.48C75,68.486,68.486,75,60.48,75H56v21c0,6.627,5.373,12,12,12h48c6.627,0,12-5.373,12-12V48
	C128,41.373,122.627,36,116,36z"/>
<path id="形状" class="st1" d="M87.48,59.075c1.343-2.682,2.938-5.066,4.52-7.055c1.585,1.989,3.177,4.373,4.52,7.055
	c-1.47,0.183-2.977,0.29-4.52,0.29S88.95,59.258,87.48,59.075z M86.073,81.69c1.918-0.295,3.894-0.463,5.927-0.463
	s4.012,0.168,5.927,0.463c0.927-2.472,1.558-5.144,1.744-7.984H84.332C84.518,76.546,85.146,79.218,86.073,81.69z M75,54.818
	c2.587,1.599,5.627,2.842,8.965,3.619c1.925-4.112,4.442-7.581,6.741-10.224c0.029-0.034,0.066-0.046,0.098-0.078
	c0.029-0.027,0.044-0.068,0.073-0.095c0.059-0.049,0.13-0.068,0.193-0.11c0.095-0.063,0.188-0.122,0.296-0.166
	c0.103-0.041,0.206-0.061,0.313-0.083c0.091-0.017,0.181-0.046,0.274-0.056C85.369,47.639,79.395,50.264,75,54.503V54.818z
	 M97.927,62.315c-1.915,0.295-3.894,0.463-5.927,0.463s-4.009-0.168-5.927-0.463c-0.922,2.467-1.551,5.136-1.742,7.979H99.67
	C99.48,67.451,98.849,64.782,97.927,62.315z M92.636,47.764c0.105,0.044,0.198,0.105,0.296,0.168
	c0.061,0.041,0.135,0.059,0.191,0.107c0.032,0.027,0.046,0.068,0.076,0.095c0.029,0.032,0.069,0.044,0.095,0.078
	c2.302,2.642,4.816,6.111,6.741,10.224c3.427-0.797,6.543-2.077,9.173-3.737c-4.41-4.356-10.474-7.06-17.157-7.074
	c0.09,0.01,0.181,0.039,0.271,0.056C92.43,47.701,92.533,47.723,92.636,47.764z M103.09,70.294h13.285
	c-0.342-4.875-2.123-9.354-4.934-13.025c-2.903,1.918-6.335,3.401-10.1,4.349C102.293,64.292,102.907,67.207,103.09,70.294z
	 M93.299,95.787c-0.027,0.032-0.066,0.041-0.095,0.071c-0.032,0.032-0.047,0.076-0.083,0.107c-0.088,0.076-0.191,0.112-0.289,0.168
	c-0.061,0.037-0.117,0.08-0.183,0.107c-0.171,0.068-0.35,0.112-0.528,0.134c6.658-0.034,12.693-2.73,17.086-7.072
	c-2.627-1.663-5.748-2.938-9.175-3.737C98.108,89.671,95.593,93.138,93.299,95.787z M92,84.64c-1.543,0-3.048,0.105-4.515,0.29
	c1.34,2.674,2.935,5.053,4.515,7.047c1.583-1.994,3.175-4.373,4.515-7.047C95.048,84.745,93.543,84.64,92,84.64z M82.661,61.618
	c-2.76-0.695-5.335-1.683-7.661-2.913v1.776c0,3.785-1.468,7.226-3.85,9.814h9.759C81.093,67.207,81.707,64.292,82.661,61.618z
	 M101.341,82.387c3.762,0.948,7.194,2.428,10.1,4.346c2.811-3.671,4.591-8.149,4.934-13.027h-13.282
	C102.912,76.79,102.298,79.708,101.341,82.387z M80.907,73.706H67.625c0.342,4.878,2.126,9.356,4.934,13.027
	c2.906-1.918,6.34-3.398,10.102-4.346C81.702,79.708,81.088,76.79,80.907,73.706z M91.168,96.134
	c-0.098-0.056-0.201-0.093-0.289-0.168c-0.034-0.032-0.049-0.076-0.083-0.107c-0.029-0.029-0.066-0.039-0.093-0.071
	c-2.297-2.65-4.811-6.116-6.734-10.221c-3.424,0.8-6.548,2.075-9.175,3.737c4.396,4.342,10.43,7.038,17.086,7.072
	c-0.179-0.022-0.357-0.066-0.526-0.134C91.286,96.214,91.232,96.17,91.168,96.134z"/>
<path class="st2" d="M11.52,0h48.96C66.842,0,72,5.158,72,11.52v48.96C72,66.842,66.842,72,60.48,72H11.52
	C5.158,72,0,66.842,0,60.48V11.52C0,5.158,5.158,0,11.52,0z"/>
<path id="path-1_00000145026698545706215590000010088703066838505385_" class="st3" d="M24.182,30.36l-3.865-5.618
	c2.5-1.173,4.02-3.775,3.757-6.557c-0.32-3.328-3.378-5.935-6.965-5.935h-6.015C9.94,12.25,9,13.19,9,14.345v17.153
	C9,32.6,9.89,33.5,10.983,33.5s1.983-0.897,1.983-2.003v-6.102h2.972l4.983,7.24c0.37,0.542,0.98,0.865,1.632,0.865
	c0.407,0,0.798-0.125,1.135-0.362C24.58,32.51,24.802,31.265,24.182,30.36z M20.14,18.827c0,1.417-1.173,2.572-2.612,2.572H12.97
	v-5.142h4.555C18.967,16.257,20.14,17.41,20.14,18.827z"/>
</svg>
