<?xml version="1.0" encoding="utf-8"?>
<!-- Generator: Adobe Illustrator 26.5.0, SVG Export Plug-In . SVG Version: 6.00 Build 0)  -->
<svg version="1.1" id="图层_1" xmlns="http://www.w3.org/2000/svg" xmlns:xlink="http://www.w3.org/1999/xlink" x="0px" y="0px"
	 width="128px" height="108px" viewBox="0 0 128 108" style="enable-background:new 0 0 128 108;" xml:space="preserve">
<style type="text/css">
	.st0{fill-rule:evenodd;clip-rule:evenodd;fill:#E2F1FF;}
</style>
<path id="形状结合" class="st0" d="M116,36c6.6,0,12,5.4,12,12l0,0v48c0,6.6-5.4,12-12,12l0,0H68c-6.6,0-12-5.4-12-12l0,0V75
	h4.5c8,0,14.5-6.5,14.5-14.5l0,0V36H116z M60.5,0C66.8,0,72,5.2,72,11.5v49C72,66.8,66.8,72,60.5,72h-49C5.2,72,0,66.8,0,60.5v-49
	C0,5.2,5.2,0,11.5,0H60.5z"/>
</svg>
