<?xml version="1.0" encoding="utf-8"?>
<!-- Generator: Adobe Illustrator 26.5.0, SVG Export Plug-In . SVG Version: 6.00 Build 0)  -->
<svg version="1.1" id="图层_1" xmlns="http://www.w3.org/2000/svg" xmlns:xlink="http://www.w3.org/1999/xlink" x="0px" y="0px"
	 width="128px" height="108px" viewBox="0 0 128 108" style="enable-background:new 0 0 128 108;" xml:space="preserve">
<style type="text/css">
	.st0{fill-rule:evenodd;clip-rule:evenodd;fill:#E2F1FF;}
	.st1{fill:#EAEAEA;}
</style>
<path class="st0" d="M116,36H75v24.5c0,8-6.5,14.5-14.5,14.5H56v21c0,6.6,5.4,12,12,12h48c6.6,0,12-5.4,12-12V48
	C128,41.4,122.6,36,116,36z"/>
<path class="st1" d="M11.5,0h49C66.8,0,72,5.2,72,11.5v49C72,66.8,66.8,72,60.5,72h-49C5.2,72,0,66.8,0,60.5v-49C0,5.2,5.2,0,11.5,0
	z"/>
</svg>
