<?xml version="1.0" encoding="utf-8"?>
<!-- Generator: Adobe Illustrator 26.5.0, SVG Export Plug-In . SVG Version: 6.00 Build 0)  -->
<svg version="1.1" id="图层_1" xmlns="http://www.w3.org/2000/svg" xmlns:xlink="http://www.w3.org/1999/xlink" x="0px" y="0px"
	 width="128px" height="108px" viewBox="0 0 128 108" style="enable-background:new 0 0 128 108;" xml:space="preserve">
<style type="text/css">
	.st0{fill-rule:evenodd;clip-rule:evenodd;fill:#E2F1FF;}
	.st1{opacity:0.2;fill-rule:evenodd;clip-rule:evenodd;}
	.st2{fill-rule:evenodd;clip-rule:evenodd;fill:#FF4D4F;}
	.st3{fill:#E2F1FF;}
	.st4{fill-rule:evenodd;clip-rule:evenodd;fill:#0F87F7;}
</style>
<path class="st0" d="M116,36H75v24.48C75,68.486,68.486,75,60.48,75H56v21c0,6.627,5.373,12,12,12h48c6.627,0,12-5.373,12-12V48
	C128,41.373,122.627,36,116,36z"/>
<path id="path-1_00000054974790139027249000000012160615566363465380_" class="st1" d="M118.125,67.352
	c0,1.183-0.96,2.15-2.145,2.15h-1.962c-1.19,0-2.145-0.965-2.145-2.15V54.15c0-1.193,0.955-2.15,2.145-2.15h1.962
	c1.185,0,2.145,0.958,2.145,2.15V67.352z M106.562,61.632c0-1.185-0.963-2.13-2.143-2.13h-1.965c-1.188,0-2.143,0.947-2.143,2.13
	v5.738c0,1.175,0.955,2.13,2.143,2.13h1.965c1.18,0,2.143-0.955,2.143-2.13V61.632z M95,68.887c0-1.18-0.958-2.135-2.143-2.135
	h-1.965c-1.185,0-2.143,0.955-2.143,2.135v19.728c0,1.177,0.958,2.135,2.143,2.135h1.965c1.185,0,2.143-0.96,2.143-2.135V68.887z
	 M83.438,76.1c0-1.18-0.958-2.142-2.143-2.142h-1.962c-1.18,0-2.143,0.962-2.143,2.142v12.507c0,1.18,0.962,2.143,2.143,2.143h1.965
	c1.185,0,2.143-0.963,2.143-2.143L83.438,76.1L83.438,76.1z M71.875,83.395c0-1.19-0.955-2.143-2.145-2.143h-1.96
	c-1.185,0-2.145,0.955-2.145,2.143v5.212c0,1.18,0.96,2.143,2.145,2.143h1.963c1.19,0,2.145-0.963,2.145-2.143L71.875,83.395
	L71.875,83.395z"/>
<path class="st2" d="M112.533,81.752l5.003-5.005c0.912-0.913,0.912-2.395,0-3.313c-0.455-0.457-1.053-0.685-1.655-0.685
	c-0.598,0-1.195,0.228-1.65,0.685l-5.01,5.003l-5.01-5.003c-0.455-0.457-1.052-0.685-1.65-0.685c-0.602,0-1.2,0.228-1.655,0.685
	c-0.912,0.915-0.912,2.398,0,3.313l5,5.005l-5,5.005c-0.912,0.912-0.912,2.395,0,3.31c0.45,0.46,1.058,0.688,1.65,0.688
	c0.603,0,1.2-0.228,1.655-0.688l5.01-5.003l5.01,5.003c0.455,0.46,1.053,0.688,1.655,0.688c0.595,0,1.2-0.228,1.65-0.688
	c0.912-0.913,0.912-2.395,0-3.31L112.533,81.752z"/>
<path class="st3" d="M11.52,0h48.96C66.842,0,72,5.158,72,11.52v48.96C72,66.842,66.842,72,60.48,72H11.52
	C5.158,72,0,66.842,0,60.48V11.52C0,5.158,5.158,0,11.52,0z"/>
<path id="path-5_00000082332078196267692780000003152925132660827797_" class="st4" d="M27.965,22.436
	c-3.424-0.797-6.543-2.077-9.173-3.737c4.413-4.356,10.474-7.06,17.162-7.074c-0.093,0.01-0.183,0.039-0.274,0.056
	c-0.108,0.022-0.21,0.041-0.313,0.083c-0.108,0.044-0.201,0.102-0.296,0.166c-0.064,0.041-0.135,0.061-0.193,0.11
	c-0.029,0.027-0.044,0.068-0.073,0.095c-0.032,0.032-0.068,0.044-0.098,0.078C32.407,14.855,29.89,18.324,27.965,22.436
	L27.965,22.436z M24.91,34.294H11.625c0.342-4.875,2.126-9.354,4.934-13.025c2.906,1.919,6.338,3.401,10.102,4.349
	C25.707,28.292,25.093,31.207,24.91,34.294L24.91,34.294z M26.661,46.387c-3.762,0.948-7.196,2.428-10.102,4.346
	c-2.808-3.671-4.591-8.149-4.934-13.027h13.282C25.088,40.79,25.702,43.708,26.661,46.387L26.661,46.387z M47.093,37.706h13.282
	c-0.342,4.878-2.123,9.356-4.934,13.027c-2.906-1.919-6.338-3.398-10.1-4.346C46.298,43.708,46.912,40.79,47.093,37.706
	L47.093,37.706z M35.88,60.375c-6.656-0.034-12.69-2.73-17.086-7.072c2.627-1.663,5.751-2.937,9.175-3.737
	c1.923,4.105,4.437,7.572,6.734,10.221c0.027,0.032,0.064,0.041,0.093,0.071c0.034,0.032,0.049,0.076,0.083,0.107
	c0.088,0.076,0.191,0.112,0.289,0.168c0.064,0.037,0.117,0.08,0.186,0.107C35.523,60.309,35.702,60.353,35.88,60.375L35.88,60.375z
	 M44.03,49.566c3.427,0.8,6.548,2.075,9.175,3.737c-4.393,4.342-10.428,7.038-17.086,7.072c0.179-0.022,0.357-0.066,0.528-0.134
	c0.066-0.027,0.122-0.071,0.183-0.107c0.098-0.056,0.201-0.093,0.289-0.168c0.037-0.032,0.051-0.076,0.083-0.107
	c0.029-0.029,0.068-0.039,0.095-0.071C39.593,57.138,42.108,53.671,44.03,49.566L44.03,49.566z M45.342,25.618
	c3.764-0.948,7.196-2.43,10.1-4.349c2.811,3.671,4.591,8.149,4.934,13.025H47.09C46.907,31.207,46.293,28.292,45.342,25.618
	L45.342,25.618z M36.051,11.625c6.683,0.015,12.746,2.718,17.157,7.074c-2.63,1.66-5.746,2.94-9.173,3.737
	c-1.925-4.112-4.44-7.581-6.741-10.224c-0.027-0.034-0.066-0.046-0.095-0.078c-0.029-0.027-0.044-0.068-0.076-0.095
	c-0.056-0.049-0.13-0.066-0.191-0.107c-0.098-0.063-0.191-0.124-0.296-0.168c-0.103-0.041-0.205-0.063-0.313-0.083
	C36.232,11.664,36.142,11.635,36.051,11.625L36.051,11.625z M41.927,26.315c0.922,2.467,1.553,5.136,1.744,7.979H28.332
	c0.191-2.842,0.819-5.512,1.742-7.979c1.918,0.295,3.894,0.463,5.927,0.463S40.012,26.61,41.927,26.315L41.927,26.315z
	 M28.332,37.706c0.186,2.84,0.815,5.512,1.742,7.984c1.918-0.295,3.894-0.463,5.927-0.463s4.012,0.168,5.927,0.463
	c0.927-2.472,1.558-5.144,1.744-7.984H28.332z M36,48.64c-1.543,0-3.048,0.105-4.515,0.29c1.34,2.674,2.935,5.053,4.515,7.048
	c1.583-1.994,3.175-4.373,4.515-7.048C39.048,48.745,37.543,48.64,36,48.64L36,48.64z M31.48,23.075
	c1.343-2.682,2.938-5.066,4.52-7.055c1.585,1.989,3.177,4.373,4.52,7.055c-1.47,0.183-2.977,0.29-4.52,0.29
	S32.95,23.258,31.48,23.075L31.48,23.075z"/>
</svg>
