<?xml version="1.0" encoding="utf-8"?>
<!-- Generator: Adobe Illustrator 26.5.0, SVG Export Plug-In . SVG Version: 6.00 Build 0)  -->
<svg version="1.1" id="图层_1" xmlns="http://www.w3.org/2000/svg" xmlns:xlink="http://www.w3.org/1999/xlink" x="0px" y="0px"
	 width="128px" height="108px" viewBox="0 0 128 108" style="enable-background:new 0 0 128 108;" xml:space="preserve">
<style type="text/css">
	.st0{fill-rule:evenodd;clip-rule:evenodd;fill:#E2F1FF;}
	.st1{opacity:0.2;fill-rule:evenodd;clip-rule:evenodd;}
	.st2{fill-rule:evenodd;clip-rule:evenodd;fill:#FF4D4F;}
	.st3{fill:#E2F1FF;}
	.st4{fill-rule:evenodd;clip-rule:evenodd;fill:#0F87F7;}
</style>
<path class="st0" d="M116,36H75v24.48C75,68.486,68.486,75,60.48,75H56v21c0,6.627,5.373,12,12,12h48c6.627,0,12-5.373,12-12V48
	C128,41.373,122.627,36,116,36z"/>
<path id="path-1_00000097498325433882369150000011459739599447008930_" class="st1" d="M86.698,81.065
	c1.917-0.295,3.895-0.463,5.927-0.463c0.272,0,0.535,0.028,0.805,0.033v-2.943c0-1.8,0.73-3.43,1.908-4.61h-10.38
	C85.143,75.922,85.77,78.592,86.698,81.065z M93.43,84.042c-0.27-0.007-0.533-0.028-0.805-0.028c-1.542,0-3.048,0.105-4.515,0.29
	c1.34,2.675,2.935,5.052,4.515,7.048c0.268-0.338,0.535-0.702,0.805-1.062V84.042z M91.792,95.507
	c-0.097-0.055-0.2-0.092-0.287-0.167c-0.035-0.033-0.05-0.075-0.082-0.108c-0.03-0.03-0.065-0.04-0.092-0.07
	c-2.298-2.65-4.812-6.118-6.735-10.222c-3.425,0.8-6.548,2.075-9.175,3.738c4.395,4.342,10.43,7.037,17.085,7.072
	c-0.177-0.022-0.357-0.065-0.525-0.135C91.91,95.59,91.857,95.545,91.792,95.507z M87.48,59.075c1.343-2.682,2.938-5.066,4.52-7.055
	c1.585,1.989,3.177,4.373,4.52,7.055c-1.47,0.183-2.977,0.29-4.52,0.29S88.95,59.258,87.48,59.075z M75,54.818
	c2.587,1.599,5.627,2.842,8.965,3.619c1.925-4.112,4.442-7.581,6.741-10.224c0.029-0.034,0.066-0.046,0.098-0.078
	c0.029-0.027,0.044-0.068,0.073-0.095c0.059-0.049,0.13-0.068,0.193-0.11c0.095-0.063,0.188-0.122,0.296-0.166
	c0.103-0.041,0.206-0.061,0.313-0.083c0.091-0.017,0.181-0.046,0.274-0.056C85.369,47.639,79.395,50.264,75,54.503V54.818z
	 M97.927,62.315c-1.915,0.295-3.894,0.463-5.927,0.463s-4.009-0.168-5.927-0.463c-0.922,2.467-1.551,5.136-1.742,7.979H99.67
	C99.48,67.451,98.849,64.782,97.927,62.315z M92.636,47.764c0.105,0.044,0.198,0.105,0.296,0.168
	c0.061,0.041,0.135,0.059,0.191,0.107c0.032,0.027,0.046,0.068,0.076,0.095c0.029,0.032,0.069,0.044,0.095,0.078
	c2.302,2.642,4.816,6.111,6.741,10.224c3.427-0.797,6.543-2.077,9.173-3.737c-4.41-4.356-10.474-7.06-17.157-7.074
	c0.09,0.01,0.181,0.039,0.271,0.056C92.43,47.701,92.533,47.723,92.636,47.764z M103.09,70.294h13.285
	c-0.342-4.875-2.123-9.354-4.934-13.025c-2.903,1.918-6.335,3.401-10.1,4.349C102.293,64.292,102.907,67.207,103.09,70.294z
	 M82.661,61.618c-2.76-0.695-5.335-1.683-7.661-2.913v1.776c0,3.785-1.468,7.226-3.85,9.814h9.759
	C81.093,67.207,81.707,64.292,82.661,61.618z M81.533,73.082H68.25c0.342,4.877,2.125,9.355,4.935,13.027
	c2.905-1.917,6.34-3.397,10.103-4.347C82.327,79.082,81.713,76.165,81.533,73.082z"/>
<path class="st2" d="M110.562,84.252l5.003-5.005c0.912-0.912,0.912-2.395,0-3.312c-0.455-0.457-1.053-0.685-1.655-0.685
	c-0.598,0-1.195,0.228-1.65,0.685l-5.01,5.003l-5.01-5.003c-0.455-0.457-1.052-0.685-1.65-0.685c-0.603,0-1.2,0.228-1.655,0.685
	c-0.912,0.915-0.912,2.398,0,3.312l5,5.005l-5,5.005c-0.912,0.912-0.912,2.395,0,3.31c0.45,0.46,1.058,0.688,1.65,0.688
	c0.603,0,1.2-0.227,1.655-0.688l5.01-5.002l5.01,5.002c0.455,0.46,1.052,0.688,1.655,0.688c0.595,0,1.2-0.227,1.65-0.688
	c0.912-0.912,0.912-2.395,0-3.31L110.562,84.252z"/>
<path class="st3" d="M11.52,0h48.96C66.842,0,72,5.158,72,11.52v48.96C72,66.842,66.842,72,60.48,72H11.52
	C5.158,72,0,66.842,0,60.48V11.52C0,5.158,5.158,0,11.52,0z"/>
<path id="path-5_00000164493533057558257230000010998046892585039490_" class="st4" d="M24.182,30.36l-3.865-5.618
	c2.5-1.173,4.02-3.775,3.757-6.557c-0.32-3.328-3.378-5.935-6.965-5.935h-6.015C9.94,12.25,9,13.19,9,14.345v17.153
	C9,32.6,9.89,33.5,10.983,33.5s1.983-0.897,1.983-2.003v-6.102h2.972l4.983,7.24c0.37,0.542,0.98,0.865,1.632,0.865
	c0.407,0,0.798-0.125,1.135-0.362C24.58,32.51,24.802,31.265,24.182,30.36z M20.14,18.827c0,1.417-1.173,2.572-2.612,2.572H12.97
	v-5.142h4.555C18.967,16.257,20.14,17.41,20.14,18.827z"/>
</svg>
