<?xml version="1.0" encoding="utf-8"?>
<!-- Generator: Adobe Illustrator 26.5.0, SVG Export Plug-In . SVG Version: 6.00 Build 0)  -->
<svg version="1.1" id="图层_1" xmlns="http://www.w3.org/2000/svg" xmlns:xlink="http://www.w3.org/1999/xlink" x="0px" y="0px"
	 width="128px" height="108px" viewBox="0 0 128 108" style="enable-background:new 0 0 128 108;" xml:space="preserve">
<style type="text/css">
	.st0{fill-rule:evenodd;clip-rule:evenodd;fill:#EAEAEA;}
	.st1{fill:#E2F1FF;}
</style>
<path class="st0" d="M116,36H75v24.48C75,68.486,68.486,75,60.48,75H56v21c0,6.627,5.373,12,12,12h48c6.627,0,12-5.373,12-12V48
	C128,41.373,122.627,36,116,36z"/>
<path class="st1" d="M11.52,0h48.96C66.842,0,72,5.158,72,11.52v48.96C72,66.842,66.842,72,60.48,72H11.52
	C5.158,72,0,66.842,0,60.48V11.52C0,5.158,5.158,0,11.52,0z"/>
</svg>
