<?xml version="1.0" encoding="utf-8"?>
<!-- Generator: Adobe Illustrator 26.5.0, SVG Export Plug-In . SVG Version: 6.00 Build 0)  -->
<svg version="1.1" id="图层_1" xmlns="http://www.w3.org/2000/svg" xmlns:xlink="http://www.w3.org/1999/xlink" x="0px" y="0px"
	 width="108px" height="108px" viewBox="0 0 108 108" style="enable-background:new 0 0 108 108;" xml:space="preserve">
<style type="text/css">
	.st0{fill-rule:evenodd;clip-rule:evenodd;fill:#E2F1FF;}
	.st1{fill-rule:evenodd;clip-rule:evenodd;fill:#0F87F7;}
</style>
<path id="path-1_00000072255995898053201910000010404127789317503626_" class="st0" d="M16,0h76c8.837,0,16,7.163,16,16v76
	c0,8.837-7.163,16-16,16H16c-8.837,0-16-7.163-16-16V16C0,7.163,7.163,0,16,0z"/>
<path id="path-3_00000051349144408912992670000007696653234721000630_" class="st1" d="M55.125,48.733
	c0-5.046,4.104-9.153,9.15-9.153H77.85c0.915,0,1.782,0.177,2.616,0.429c1.137-0.096,2.034-0.891,2.034-2.508
	c0-3.72-3.027-6.75-6.75-6.75h-43.5c-3.723,0-6.75,3.03-6.75,6.75v25.5c0,3.708,3.012,6.732,6.72,6.747
	c0,0,21.825,0.006,20.586,0.003c1.167-0.006,2.094-0.906,2.202-2.043h0.117C55.125,67.708,55.125,48.733,55.125,48.733z
	 M77.85,44.08H64.275c-2.565,0-4.65,2.088-4.65,4.653v23.865c0,2.568,2.085,4.653,4.65,4.653H77.85c2.565,0,4.65-2.085,4.65-4.653
	V48.733C82.5,46.168,80.415,44.08,77.85,44.08L77.85,44.08z M52.806,72.751c1.239,0.003,2.244,1.008,2.244,2.247
	c0,1.242-1.008,2.25-2.25,2.25H32.25c-1.242,0-2.25-1.008-2.25-2.25s1.008-2.25,2.25-2.25C32.25,72.748,54.045,72.745,52.806,72.751
	L52.806,72.751z"/>
</svg>
