<?xml version="1.0" encoding="utf-8"?>
<!-- Generator: Adobe Illustrator 26.5.0, SVG Export Plug-In . SVG Version: 6.00 Build 0)  -->
<svg version="1.1" id="图层_1" xmlns="http://www.w3.org/2000/svg" xmlns:xlink="http://www.w3.org/1999/xlink" x="0px" y="0px"
	 width="22px" height="22px" viewBox="0 0 22 22" style="enable-background:new 0 0 22 22;" xml:space="preserve">
<style type="text/css">
	.st0{opacity:0.4;fill-rule:evenodd;clip-rule:evenodd;}
	.st1{fill:#FFFFFF;}
	.st2{fill-rule:evenodd;clip-rule:evenodd;fill:#FFFFFF;}
</style>
<path class="st0" d="M11,1.216L11,1.216c5.404,0,9.784,4.381,9.784,9.784l0,0c0,5.404-4.381,9.784-9.784,9.784l0,0
	c-5.404,0-9.784-4.381-9.784-9.784l0,0C1.216,5.596,5.596,1.216,11,1.216z"/>
<path class="st1" d="M11,0.116C4.999,0.116,0.116,4.999,0.116,11c0,6.002,4.883,10.884,10.884,10.884
	c6.002,0,10.884-4.882,10.884-10.884C21.884,4.999,17.002,0.116,11,0.116z M11,19.685c-4.789,0-8.684-3.896-8.684-8.685
	c0-4.789,3.896-8.684,8.684-8.684c4.788,0,8.685,3.896,8.685,8.684C19.685,15.788,15.788,19.685,11,19.685z"/>
<path id="path-1_00000168091715486758983150000002847486770231300499_" class="st2" d="M10.999,6.115
	c1.066,0,1.934,0.867,1.934,1.934V9.27h0.51c0.505,0,0.916,0.411,0.916,0.916v3.867c0,0.505-0.411,0.916-0.916,0.916H8.558
	c-0.505,0-0.916-0.411-0.916-0.916v-3.867c0-0.505,0.411-0.916,0.916-0.916h0.508V8.049C9.065,6.983,9.933,6.115,10.999,6.115z
	 M11,10.817c-0.394,0-0.712,0.319-0.712,0.712c0,0.284,0.167,0.527,0.407,0.641l0,0v0.947c0,0.169,0.137,0.305,0.305,0.305
	s0.305-0.137,0.305-0.305l0,0V12.17c0.24-0.114,0.407-0.357,0.407-0.641C11.712,11.136,11.393,10.817,11,10.817z M10.999,6.726
	c-0.729,0-1.323,0.594-1.323,1.323V9.27h2.646V8.049C12.322,7.319,11.728,6.726,10.999,6.726z"/>
</svg>
