<?xml version="1.0" encoding="utf-8"?>
<!-- Generator: Adobe Illustrator 26.5.0, SVG Export Plug-In . SVG Version: 6.00 Build 0)  -->
<svg version="1.1" id="图层_1" xmlns="http://www.w3.org/2000/svg" xmlns:xlink="http://www.w3.org/1999/xlink" x="0px" y="0px"
	 width="18px" height="18px" viewBox="0 0 18 18" style="enable-background:new 0 0 18 18;" xml:space="preserve">
<style type="text/css">
	.st0{fill-rule:evenodd;clip-rule:evenodd;fill:#0F87F7;}
	.st1{fill-rule:evenodd;clip-rule:evenodd;fill:#FFFFFF;}
</style>
<path class="st0" d="M18,9c0,4.971-4.029,9-9,9s-9-4.029-9-9s4.029-9,9-9S18,4.029,18,9z"/>
<path id="path-1_00000152957831743463671680000015869974924198072721_" class="st1" d="M8.998,3c1.31,0,2.375,1.066,2.375,2.375v1.5
	H12c0.62,0,1.125,0.505,1.125,1.125v4.75c0,0.62-0.505,1.125-1.125,1.125H6c-0.621,0-1.125-0.505-1.125-1.125V8
	c0-0.62,0.504-1.125,1.125-1.125h0.623v-1.5C6.623,4.066,7.689,3,8.998,3z M9,8.775c-0.483,0-0.875,0.392-0.875,0.875
	c0,0.349,0.205,0.647,0.5,0.788l0,0v1.163c0,0.207,0.168,0.375,0.375,0.375s0.375-0.168,0.375-0.375l0,0v-1.163
	c0.295-0.141,0.5-0.438,0.5-0.788C9.875,9.167,9.483,8.775,9,8.775z M8.998,3.75c-0.896,0-1.625,0.729-1.625,1.625v1.5h3.25v-1.5
	C10.623,4.479,9.894,3.75,8.998,3.75z"/>
</svg>
