<?xml version="1.0" encoding="utf-8"?>
<!-- Generator: Adobe Illustrator 26.5.0, SVG Export Plug-In . SVG Version: 6.00 Build 0)  -->
<svg version="1.1" id="图层_1" xmlns="http://www.w3.org/2000/svg" xmlns:xlink="http://www.w3.org/1999/xlink" x="0px" y="0px"
	 width="40px" height="40px" viewBox="0 0 40 40" style="enable-background:new 0 0 40 40;" xml:space="preserve">
<style type="text/css">
	.st0{fill-rule:evenodd;clip-rule:evenodd;fill:#3198FF;}
</style>
<path class="st0" d="M33.728,22.932h-2.504l-6.689-3.399c-1.019-0.519-2.111-0.842-3.219-0.989v-2.372h2.054
	c1.768,0,3.209-1.405,3.209-3.131V6.462c0-1.725-1.44-3.129-3.209-3.129h-6.742c-1.768,0-3.207,1.404-3.207,3.129v6.578
	c0,1.725,1.439,3.131,3.207,3.131h2.056v2.372c-1.111,0.145-2.202,0.471-3.221,0.989l-6.689,3.399H6.27
	c-1.619,0-2.937,1.285-2.937,2.867v6.333C3.333,33.715,4.651,35,6.27,35h6.493c1.619,0,2.937-1.285,2.937-2.867V25.8
	c0-1.287-0.877-2.366-2.075-2.727l2.933-1.491c2.154-1.097,4.728-1.097,6.884,0l2.933,1.491c-1.198,0.361-2.075,1.44-2.075,2.727
	v6.333c0,1.582,1.318,2.867,2.939,2.867h6.489c1.621,0,2.939-1.285,2.939-2.867V25.8C36.667,24.218,35.349,22.932,33.728,22.932
	L33.728,22.932z"/>
</svg>
