<?xml version="1.0" encoding="utf-8"?>
<!-- Generator: Adobe Illustrator 26.5.0, SVG Export Plug-In . SVG Version: 6.00 Build 0)  -->
<svg version="1.1" id="图层_1" xmlns="http://www.w3.org/2000/svg" xmlns:xlink="http://www.w3.org/1999/xlink" x="0px" y="0px"
	 width="108px" height="108px" viewBox="0 0 108 108" style="enable-background:new 0 0 108 108;" xml:space="preserve">
<style type="text/css">
	.st0{fill-rule:evenodd;clip-rule:evenodd;fill:#E2F1FF;enable-background:new    ;}
	.st1{fill-rule:evenodd;clip-rule:evenodd;fill:#0F87F7;}
</style>
<path class="st0" d="M16,0h76c8.837,0,16,7.163,16,16v76c0,8.837-7.163,16-16,16H16c-8.837,0-16-7.163-16-16V16
	C0,7.163,7.163,0,16,0z"/>
<path id="path-3_00000078011345985016259770000006529639313001072825_" class="st1" d="M44.358,37.724
	c-4.109-0.957-7.852-2.492-11.007-4.484c5.295-5.227,12.569-8.472,20.594-8.489c-0.112,0.012-0.22,0.047-0.329,0.067
	c-0.129,0.026-0.252,0.05-0.376,0.099c-0.129,0.053-0.241,0.123-0.355,0.199c-0.076,0.05-0.161,0.073-0.232,0.132
	c-0.035,0.032-0.053,0.082-0.088,0.114c-0.038,0.038-0.082,0.053-0.117,0.094C49.688,28.626,46.668,32.789,44.358,37.724
	L44.358,37.724z M40.691,51.952H24.75c0.411-5.851,2.551-11.224,5.92-15.63c3.487,2.302,7.605,4.081,12.123,5.219
	C41.648,44.75,40.912,48.249,40.691,51.952L40.691,51.952z M42.793,66.465c-4.514,1.138-8.636,2.914-12.123,5.216
	c-3.37-4.405-5.51-9.779-5.92-15.633h15.939C40.906,59.748,41.642,63.25,42.793,66.465L42.793,66.465z M67.311,56.048H83.25
	c-0.411,5.854-2.548,11.227-5.92,15.633c-3.487-2.302-7.605-4.078-12.12-5.216C66.357,63.25,67.094,59.748,67.311,56.048
	L67.311,56.048z M53.856,83.25c-7.987-0.041-15.228-3.276-20.503-8.486c3.152-1.995,6.901-3.525,11.01-4.484
	c2.307,4.926,5.325,9.086,8.081,12.266c0.032,0.038,0.076,0.05,0.112,0.085c0.041,0.038,0.059,0.091,0.1,0.129
	c0.106,0.091,0.229,0.135,0.346,0.202c0.076,0.044,0.141,0.097,0.223,0.129C53.428,83.171,53.642,83.224,53.856,83.25L53.856,83.25z
	 M63.637,70.279c4.112,0.96,7.858,2.489,11.01,4.484c-5.272,5.21-12.513,8.445-20.503,8.486c0.214-0.026,0.429-0.079,0.634-0.161
	c0.079-0.032,0.147-0.085,0.22-0.129c0.117-0.067,0.241-0.111,0.346-0.202c0.044-0.038,0.062-0.091,0.1-0.129
	c0.035-0.035,0.082-0.047,0.114-0.085C58.312,79.365,61.329,75.205,63.637,70.279L63.637,70.279z M65.21,41.541
	c4.517-1.138,8.636-2.917,12.12-5.219c3.373,4.405,5.51,9.779,5.92,15.63H67.309C67.088,48.249,66.352,44.75,65.21,41.541
	L65.21,41.541z M54.062,24.75c8.019,0.018,15.296,3.262,20.588,8.489c-3.155,1.992-6.895,3.528-11.007,4.484
	c-2.31-4.935-5.328-9.098-8.09-12.269c-0.032-0.041-0.079-0.056-0.114-0.094c-0.035-0.032-0.053-0.082-0.091-0.114
	c-0.068-0.059-0.156-0.079-0.229-0.129c-0.117-0.076-0.229-0.149-0.355-0.202c-0.123-0.05-0.247-0.076-0.376-0.099
	C54.279,24.797,54.17,24.762,54.062,24.75L54.062,24.75z M61.112,42.378c1.107,2.96,1.864,6.164,2.093,9.574H44.798
	c0.229-3.411,0.983-6.614,2.09-9.574c2.301,0.354,4.673,0.556,7.112,0.556S58.814,42.732,61.112,42.378L61.112,42.378z
	 M44.798,56.048c0.223,3.408,0.977,6.614,2.09,9.58c2.301-0.354,4.673-0.556,7.112-0.556s4.814,0.202,7.112,0.556
	c1.112-2.966,1.87-6.172,2.093-9.58C63.205,56.048,44.798,56.048,44.798,56.048z M54,69.168c-1.852,0-3.657,0.126-5.419,0.348
	c1.609,3.209,3.522,6.064,5.419,8.457c1.899-2.393,3.81-5.248,5.419-8.457C57.657,69.293,55.852,69.168,54,69.168L54,69.168z
	 M48.576,38.49c1.611-3.218,3.525-6.079,5.424-8.466c1.902,2.387,3.813,5.248,5.424,8.466c-1.764,0.219-3.572,0.348-5.424,0.348
	S50.34,38.709,48.576,38.49L48.576,38.49z"/>
</svg>
