<?xml version="1.0" encoding="utf-8"?>
<!-- Generator: Adobe Illustrator 26.5.0, SVG Export Plug-In . SVG Version: 6.00 Build 0)  -->
<svg version="1.1" id="图层_1" xmlns="http://www.w3.org/2000/svg" xmlns:xlink="http://www.w3.org/1999/xlink" x="0px" y="0px"
	 width="18px" height="18px" viewBox="0 0 18 18" style="enable-background:new 0 0 18 18;" xml:space="preserve">
<style type="text/css">
	.st0{fill-rule:evenodd;clip-rule:evenodd;fill:#FF4D4F;}
	.st1{fill-rule:evenodd;clip-rule:evenodd;fill:#FFFFFF;}
</style>
<path class="st0" d="M9,16.5c-4.1,0-7.5-3.4-7.5-7.5S4.9,1.5,9,1.5c4.1,0,7.5,3.4,7.5,7.5S13.1,16.5,9,16.5L9,16.5z"/>
<path id="合并形状" class="st1" d="M9,11.4c0.4,0,0.6,0.3,0.6,0.6S9.4,12.6,9,12.6c-0.4,0-0.6-0.3-0.6-0.6S8.6,11.4,9,11.4z
	 M9,4.9c0.3,0,0.6,0.3,0.6,0.6l0,0v4.3c0,0.3-0.3,0.6-0.6,0.6s-0.6-0.3-0.6-0.6l0,0V5.4C8.4,5.1,8.7,4.9,9,4.9z"/>
</svg>
