<?xml version="1.0" encoding="utf-8"?>
<!-- Generator: Adobe Illustrator 26.5.0, SVG Export Plug-In . SVG Version: 6.00 Build 0)  -->
<svg version="1.1" id="图层_1" xmlns="http://www.w3.org/2000/svg" xmlns:xlink="http://www.w3.org/1999/xlink" x="0px" y="0px"
	 width="108px" height="108px" viewBox="0 0 108 108" style="enable-background:new 0 0 108 108;" xml:space="preserve">
<style type="text/css">
	.st0{fill-rule:evenodd;clip-rule:evenodd;fill:#E2F1FF;enable-background:new    ;}
	.st1{fill-rule:evenodd;clip-rule:evenodd;fill:#0F87F7;}
</style>
<path class="st0" d="M16,0h76c8.837,0,16,7.163,16,16v76c0,8.837-7.163,16-16,16H16c-8.837,0-16-7.163-16-16V16
	C0,7.163,7.163,0,16,0z"/>
<path id="path-3_00000129176373169263195150000007343470885310853050_" class="st1" d="M84,62.13v9.09c0,3.75-3.027,6.78-6.75,6.78
	h-46.5C27.027,78,24,74.97,24,71.22v-9.09c0-3.72,3.027-6.78,6.75-6.78h36.165v-3.66l-0.552-0.36c-1.464-1.47-1.464-3.84,0-5.31
	s3.837-1.47,5.304,0c1.464,1.47,1.464,3.84,0,5.31l-0.552,0.36v3.66h6.135C80.973,55.35,84,58.41,84,62.13z M77.196,43.44
	c0.819-0.81,0.819-2.16,0-2.97c-4.512-4.53-11.85-4.53-16.362,0c-0.819,0.81-0.819,2.16,0,2.97c0.822,0.84,2.151,0.84,2.973,0
	c2.871-2.88,7.548-2.88,10.419,0c0.408,0.42,0.948,0.63,1.485,0.63S76.785,43.86,77.196,43.44z M83.235,37.38
	c0.819-0.81,0.822-2.16,0-2.97c-3.795-3.81-8.844-5.91-14.214-5.91c-5.367,0-10.416,2.1-14.211,5.91c-0.822,0.81-0.822,2.16,0,2.97
	c0.819,0.84,2.148,0.84,2.97,0c3.003-3,6.996-4.68,11.241-4.68c4.248,0,8.241,1.68,11.244,4.68c0.411,0.42,0.948,0.63,1.485,0.63
	S82.824,37.8,83.235,37.38z M53.562,63.66c-1.656,0-3,1.35-3,3.03c0,1.65,1.344,3,3,3s3-1.35,3-3
	C56.562,65.01,55.218,63.66,53.562,63.66z M35.562,63.66c-1.656,0-3,1.35-3,3.03c0,1.65,1.344,3,3,3s3-1.35,3-3
	C38.562,65.01,37.218,63.66,35.562,63.66z M44.688,63.66c-1.656,0-3,1.35-3,3.03c0,1.65,1.344,3,3,3s3-1.35,3-3
	C47.688,65.01,46.344,63.66,44.688,63.66z"/>
</svg>
