<?xml version="1.0" encoding="utf-8"?>
<!-- Generator: Adobe Illustrator 26.5.0, SVG Export Plug-In . SVG Version: 6.00 Build 0)  -->
<svg version="1.1" id="图层_1" xmlns="http://www.w3.org/2000/svg" xmlns:xlink="http://www.w3.org/1999/xlink" x="0px" y="0px"
	 width="24px" height="24px" viewBox="0 0 24 24" style="enable-background:new 0 0 24 24;" xml:space="preserve">
<style type="text/css">
	.st0{fill-rule:evenodd;clip-rule:evenodd;}
</style>
<path id="path-1_00000143575164984625850380000015843781827715965365_" class="st0" d="M21.4,16.8L20,18.2c-0.4,0.4-1.1,0.4-1.5-0.1
	l-0.3-0.3l1.1-1.1c0.2-0.2,0.2-0.5,0-0.7s-0.5-0.2-0.7,0l-1.1,1.1l-0.3-0.3c-0.4-0.4-0.4-1.1-0.1-1.5l1.4-1.4c0.4-0.4,1-0.4,1.5,0.1
	l1.3,1.3C21.8,15.7,21.8,16.4,21.4,16.8L21.4,16.8z M18.1,18.6l-0.3-0.3l-1.1,1.1c-0.2,0.2-0.5,0.2-0.7,0c-0.2-0.2-0.2-0.5,0-0.7
	l1.1-1.1l-0.3-0.3c-0.4-0.4-1.1-0.5-1.5-0.1L14,18.6c-0.4,0.4-0.4,1,0.1,1.5l1.3,1.3c0.4,0.4,1.1,0.5,1.5,0.1l1.4-1.4
	C18.6,19.6,18.5,19,18.1,18.6L18.1,18.6z M16.1,10.4c0-0.6-0.5-1.1-1.2-1.1h-2v2.3h2C15.6,11.5,16.1,11,16.1,10.4L16.1,10.4z
	 M17.5,10.4c0,1.4-1.2,2.5-2.6,2.5h-2v2.5c0,0.4-0.3,0.7-0.7,0.7c-0.4,0-0.7-0.3-0.7-0.7V8.5c0-0.4,0.3-0.7,0.7-0.7c0,0,0,0,0.1,0
	c0,0,0,0,0.1,0h2.6C16.3,7.8,17.5,9,17.5,10.4L17.5,10.4z M9.5,15.6c0,0.4-0.3,0.7-0.7,0.7c-0.4,0-0.7-0.3-0.7-0.7V8.4
	c0-0.4,0.3-0.7,0.7-0.7c0.4,0,0.7,0.3,0.7,0.7V15.6z M12,22C6.5,22,2,17.5,2,12C2,6.5,6.5,2,12,2s10,4.5,10,10
	c0,0.4-0.3,0.7-0.7,0.7s-0.7-0.3-0.7-0.7c0-4.7-3.9-8.6-8.6-8.6S3.4,7.3,3.4,12s3.9,8.6,8.6,8.6c0.4,0,0.7,0.3,0.7,0.7
	C12.7,21.7,12.4,22,12,22L12,22z"/>
</svg>
