<?xml version="1.0" encoding="utf-8"?>
<!-- Generator: Adobe Illustrator 26.5.0, SVG Export Plug-In . SVG Version: 6.00 Build 0)  -->
<svg version="1.1" id="图层_1" xmlns="http://www.w3.org/2000/svg" xmlns:xlink="http://www.w3.org/1999/xlink" x="0px" y="0px"
	 width="18px" height="18px" viewBox="0 0 18 18" style="enable-background:new 0 0 18 18;" xml:space="preserve">
<style type="text/css">
	.st0{fill-rule:evenodd;clip-rule:evenodd;fill:#27C268;}
</style>
<path id="path-1_00000014628772525395334470000002029961895059013508_" class="st0" d="M3.8,13.4c0.1,0.1,0.3,0.3,0.5,0.4
	c-0.4,0.8-0.7,1.6-0.9,2.6c-0.1,0.3-0.3,0.5-0.6,0.5c0,0-0.1,0-0.1,0c-0.3-0.1-0.5-0.4-0.5-0.7c0.2-1.2,0.6-2.2,1.1-3.2
	C3.5,13.1,3.6,13.2,3.8,13.4z M16.3,3.7c-0.2-0.2-0.4-0.3-0.7-0.3h-0.4c-0.7,0-1.4,0-2,0c-2.5,0-4.6,0-6.2,0.4
	C5.5,4.1,4.5,4.8,4.1,5.2C3.3,5.9,2.7,6.8,2.4,7.9C2.2,8.7,2.1,10,2.5,11.3v0c0.1,0.3,0.3,1,0.9,1.7c0.6-1.1,1.4-2.1,2.5-3.1
	c1.8-1.6,3.5-2.3,4.2-2.6c0.3-0.1,0.6,0.1,0.8,0.4c0.1,0.3,0,0.7-0.4,0.8c-0.6,0.2-2.2,0.9-3.8,2.4c-1.1,1-1.9,2-2.4,3.1
	c0.3,0.2,0.7,0.4,1.1,0.6c0,0,0,0,0,0c0.5,0.2,1.2,0.4,2.1,0.5c0.2,0,0.4,0,0.6,0c1.1,0,2.2-0.3,3.1-0.8c1.2-0.7,2.2-1.7,3.1-3.2
	c1-1.7,1.7-3.8,2.1-6.5c0-0.1,0-0.1,0-0.2C16.5,4.1,16.4,3.9,16.3,3.7z"/>
</svg>
