<?xml version="1.0" encoding="utf-8"?>
<!-- Generator: Adobe Illustrator 26.5.0, SVG Export Plug-In . SVG Version: 6.00 Build 0)  -->
<svg version="1.1" id="图层_1" xmlns="http://www.w3.org/2000/svg" xmlns:xlink="http://www.w3.org/1999/xlink" x="0px" y="0px"
	 width="32px" height="32px" viewBox="0 0 32 32" style="enable-background:new 0 0 32 32;" xml:space="preserve">
<style type="text/css">
	.st0{fill-rule:evenodd;clip-rule:evenodd;}
</style>
<path id="path-1_00000059272335232225314580000010539592115664452023_" class="st0" d="M24.455,6.1l-2.896,2.898
	c-0.41,0.4-0.41,1.049,0,1.449c0.396,0.4,1.038,0.4,1.448,0l2.896-2.898c0.396-0.399,0.396-1.049,0-1.449
	C25.506,5.701,24.851,5.701,24.455,6.1z M10.441,21.554c0.41,0.4,0.41,1.049,0,1.449l-2.896,2.898c-0.396,0.399-1.052,0.399-1.448,0
	c-0.396-0.4-0.396-1.05,0-1.449l2.896-2.898C9.403,21.153,10.045,21.153,10.441,21.554z M28.976,14.976h-4.098
	c-0.56,0-1.024,0.459-1.024,1.024c0,0.567,0.464,1.024,1.024,1.024l4.098,0.001C29.536,17.024,30,16.567,30,16
	C30,15.435,29.536,14.976,28.976,14.976z M8.146,16c0,0.567-0.464,1.024-1.024,1.024l-4.098,0.001C2.464,17.024,2,16.567,2,16
	c0-0.565,0.464-1.024,1.024-1.024h4.098C7.682,14.976,8.146,15.435,8.146,16z M25.902,24.452l-2.896-2.898
	c-0.41-0.4-1.052-0.4-1.448,0c-0.41,0.4-0.41,1.049,0,1.449l2.896,2.898c0.396,0.399,1.052,0.399,1.448,0
	C26.299,25.501,26.299,24.851,25.902,24.452z M10.441,10.448c-0.396,0.4-1.038,0.4-1.448,0L6.098,7.549
	C5.701,7.151,5.701,6.5,6.098,6.1c0.396-0.399,1.052-0.399,1.448,0l2.896,2.898C10.851,9.399,10.851,10.048,10.441,10.448z
	 M17.024,28.976v-4.098c0-0.565-0.464-1.024-1.024-1.024c-0.56,0-1.024,0.459-1.024,1.024v4.098C14.976,29.542,15.44,30,16,30
	C16.56,30,17.024,29.542,17.024,28.976z M16,8.146c-0.56,0-1.024-0.458-1.024-1.024V3.024C14.976,2.459,15.44,2,16,2
	c0.56,0,1.024,0.459,1.024,1.024v4.098C17.024,7.689,16.56,8.146,16,8.146L16,8.146z"/>
</svg>
