<?xml version="1.0" encoding="utf-8"?>
<!-- Generator: Adobe Illustrator 26.5.0, SVG Export Plug-In . SVG Version: 6.00 Build 0)  -->
<svg version="1.1" id="图层_1" xmlns="http://www.w3.org/2000/svg" xmlns:xlink="http://www.w3.org/1999/xlink" x="0px" y="0px"
	 width="20px" height="20px" viewBox="0 0 20 20" style="enable-background:new 0 0 20 20;" xml:space="preserve">
<style type="text/css">
	.st0{fill-rule:evenodd;clip-rule:evenodd;fill:#969696;}
	.st1{fill:#FFFFFF;}
</style>
<circle class="st0" cx="10" cy="10" r="8"/>
<path class="st1" d="M10,20C4.5,20,0,15.5,0,10C0,4.5,4.5,0,10,0c5.5,0,10,4.5,10,10C20,15.5,15.5,20,10,20z M10,2c-4.4,0-8,3.6-8,8
	s3.6,8,8,8s8-3.6,8-8S14.4,2,10,2z"/>
<path class="st1" d="M10.7,14.1c0,0.4-0.3,0.7-0.7,0.7c-0.4,0-0.7-0.3-0.7-0.7c0-0.4,0.3-0.7,0.7-0.7C10.4,13.3,10.7,13.7,10.7,14.1
	z M7.7,11.6c-0.1,0.1-0.2,0.2-0.2,0.3c0,0.1,0,0.3,0.1,0.4c0.1,0.1,0.3,0.2,0.4,0.2c0.1,0,0.2,0,0.3-0.1c1-0.7,2.4-0.7,3.3,0
	c0.2,0.2,0.6,0.1,0.7-0.1c0.1-0.1,0.1-0.3,0.1-0.4c0-0.1-0.1-0.3-0.2-0.3C10.9,10.7,9.1,10.7,7.7,11.6z M14.9,7.8
	c-1.4-1-3.1-1.6-4.9-1.6c-1.8,0-3.5,0.5-4.9,1.6C5,7.9,4.9,8,4.9,8.2c0,0.1,0,0.3,0.1,0.4c0.1,0.1,0.3,0.2,0.4,0.2
	c0.1,0,0.2,0,0.3-0.1C7,7.8,8.4,7.3,10,7.3c1.6,0,3,0.5,4.3,1.4c0.1,0.1,0.2,0.1,0.4,0.1c0.1,0,0.3-0.1,0.3-0.2
	C15.2,8.3,15.1,8,14.9,7.8z M10,8.6C8.7,8.6,7.5,9,6.4,9.7c-0.1,0.1-0.2,0.2-0.2,0.3c0,0.1,0,0.3,0.1,0.4c0.1,0.1,0.3,0.2,0.4,0.2
	c0.1,0,0.2,0,0.3-0.1c0.9-0.6,1.9-1,3-1c1.1,0,2.1,0.3,3,0.9c0.1,0.1,0.2,0.1,0.4,0.1c0.1,0,0.3-0.1,0.3-0.2
	c0.2-0.2,0.1-0.6-0.1-0.7C12.5,9,11.3,8.6,10,8.6z"/>
</svg>
