<?xml version="1.0" encoding="utf-8"?>
<!-- Generator: Adobe Illustrator 26.5.0, SVG Export Plug-In . SVG Version: 6.00 Build 0)  -->
<svg version="1.1" id="图层_1" xmlns="http://www.w3.org/2000/svg" xmlns:xlink="http://www.w3.org/1999/xlink" x="0px" y="0px"
	 width="22px" height="22px" viewBox="0 0 22 22" style="enable-background:new 0 0 22 22;" xml:space="preserve">
<style type="text/css">
	.st0{fill-rule:evenodd;clip-rule:evenodd;}
</style>
<path id="path-1_00000005949013016863953120000012640250386815479989_" class="st0" d="M18.864,17.673
	c0,0.169-0.141,0.306-0.314,0.306h-3.569c-0.174,0-0.315-0.137-0.315-0.306V14.19c0-0.169,0.141-0.306,0.315-0.306h3.569
	c0.173,0,0.314,0.137,0.314,0.306V17.673z M7.333,17.673c0,0.169-0.141,0.306-0.314,0.306H3.449c-0.173,0-0.314-0.137-0.314-0.306
	V14.19c0-0.169,0.141-0.306,0.314-0.306H7.02c0.173,0,0.314,0.137,0.314,0.306V17.673z M8.648,7.172V3.554
	c0-0.267,0.224-0.485,0.498-0.485h3.708c0.275,0,0.498,0.217,0.498,0.485v3.618c0,0.268-0.223,0.486-0.498,0.486H9.145
	C8.871,7.658,8.648,7.441,8.648,7.172L8.648,7.172z M18.55,12.613h-1.377l-3.679-1.87c-0.561-0.285-1.161-0.463-1.771-0.544V8.894
	h1.13c0.973,0,1.765-0.773,1.765-1.722V3.554c0-0.949-0.792-1.721-1.765-1.721H9.145c-0.973,0-1.764,0.772-1.764,1.721v3.618
	c0,0.949,0.791,1.722,1.764,1.722h1.131v1.305c-0.611,0.08-1.211,0.259-1.772,0.544l-3.679,1.87H3.449
	c-0.891,0-1.615,0.707-1.615,1.577v3.483c0,0.87,0.725,1.577,1.615,1.577H7.02c0.891,0,1.615-0.707,1.615-1.577V14.19
	c0-0.708-0.482-1.301-1.141-1.5l1.613-0.82c1.185-0.603,2.6-0.603,3.786,0l1.613,0.82c-0.659,0.199-1.141,0.792-1.141,1.5v3.483
	c0,0.87,0.725,1.577,1.616,1.577h3.569c0.892,0,1.616-0.707,1.616-1.577V14.19C20.167,13.32,19.442,12.613,18.55,12.613
	L18.55,12.613z"/>
</svg>
