<?xml version="1.0" encoding="utf-8"?>
<!-- Generator: Adobe Illustrator 26.5.0, SVG Export Plug-In . SVG Version: 6.00 Build 0)  -->
<svg version="1.1" id="图层_1" xmlns="http://www.w3.org/2000/svg" xmlns:xlink="http://www.w3.org/1999/xlink" x="0px" y="0px"
	 width="64px" height="64px" viewBox="0 0 64 64" style="enable-background:new 0 0 64 64;" xml:space="preserve">
<style type="text/css">
	.st0{fill-rule:evenodd;clip-rule:evenodd;fill:#FF4D4F;}
	.st1{fill:#FFFFFF;}
</style>
<path class="st0" d="M32,0c17.7,0,32,14.3,32,32S49.7,64,32,64S0,49.7,0,32S14.3,0,32,0z"/>
<path class="st1" d="M43.3,40.1c0.4,0.4,0.7,1,0.7,1.6s-0.2,1.2-0.7,1.6c-0.4,0.4-1,0.7-1.6,0.7c-0.6,0-1.2-0.2-1.6-0.7L32,35.3
	l-8.1,8.1c-0.9,0.9-2.4,0.9-3.3,0c-0.4-0.4-0.7-1-0.7-1.6s0.2-1.2,0.7-1.6l8.1-8.1l-8.1-8.1c-0.9-0.9-0.9-2.4,0-3.3
	c0.9-0.9,2.4-0.9,3.3,0l8.1,8.1l8.1-8.1c0.9-0.9,2.4-0.9,3.3,0c0.4,0.4,0.7,1,0.7,1.6c0,0.6-0.2,1.2-0.7,1.6L35.3,32L43.3,40.1z"/>
</svg>
