<?xml version="1.0" encoding="utf-8"?>
<!-- Generator: Adobe Illustrator 26.5.0, SVG Export Plug-In . SVG Version: 6.00 Build 0)  -->
<svg version="1.1" id="图层_1" xmlns="http://www.w3.org/2000/svg" xmlns:xlink="http://www.w3.org/1999/xlink" x="0px" y="0px"
	 width="22px" height="22px" viewBox="0 0 22 22" style="enable-background:new 0 0 22 22;" xml:space="preserve">
<style type="text/css">
	.st0{fill-rule:evenodd;clip-rule:evenodd;fill:#FAAD14;}
	.st1{filter:url(#Adobe_OpacityMaskFilter);}
	.st2{fill-rule:evenodd;clip-rule:evenodd;fill:#FFFFFF;}
	.st3{mask:url(#mask-2_00000065784932957173441250000001967091328063701907_);fill-rule:evenodd;clip-rule:evenodd;fill:#FFFFFF;}
</style>
<path class="st0" d="M11,0c6.1,0,11,4.9,11,11s-4.9,11-11,11S0,17.1,0,11S4.9,0,11,0z"/>
<defs>
	<filter id="Adobe_OpacityMaskFilter" filterUnits="userSpaceOnUse" x="9.9" y="4.5" width="2.2" height="13.1">
		<feColorMatrix  type="matrix" values="1 0 0 0 0  0 1 0 0 0  0 0 1 0 0  0 0 0 1 0"/>
	</filter>
</defs>
<mask maskUnits="userSpaceOnUse" x="9.9" y="4.5" width="2.2" height="13.1" id="mask-2_00000065784932957173441250000001967091328063701907_">
	<g class="st1">
		<circle id="path-1_00000115497436624806942290000006553050166773721224_" class="st2" cx="11" cy="11" r="11"/>
	</g>
</mask>
<path id="形状结合" class="st3" d="M11,15.4c0.6,0,1.1,0.5,1.1,1.1c0,0.6-0.5,1.1-1.1,1.1s-1.1-0.5-1.1-1.1
	C9.9,15.9,10.4,15.4,11,15.4z M11,4.5c0.5,0,0.8,0.3,0.9,0.8l0,0.1v7.1c0,0.5-0.4,0.9-0.9,0.9c-0.5,0-0.8-0.4-0.9-0.8l0-0.1V5.4
	C10.1,4.9,10.5,4.5,11,4.5z"/>
</svg>
