<?xml version="1.0" encoding="utf-8"?>
<!-- Generator: Adobe Illustrator 26.5.0, SVG Export Plug-In . SVG Version: 6.00 Build 0)  -->
<svg version="1.1" id="图层_1" xmlns="http://www.w3.org/2000/svg" xmlns:xlink="http://www.w3.org/1999/xlink" x="0px" y="0px"
	 width="22px" height="22px" viewBox="0 0 22 22" style="enable-background:new 0 0 22 22;" xml:space="preserve">
<style type="text/css">
	.st0{fill-rule:evenodd;clip-rule:evenodd;fill:#369EFF;}
	.st1{filter:url(#Adobe_OpacityMaskFilter);}
	.st2{fill-rule:evenodd;clip-rule:evenodd;fill:#FFFFFF;}
	.st3{mask:url(#mask-2_00000161597437517545874660000003078145042465670787_);fill-rule:evenodd;clip-rule:evenodd;fill:#FFFFFF;}
</style>
<path class="st0" d="M11,0c6.1,0,11,4.9,11,11s-4.9,11-11,11S0,17.1,0,11S4.9,0,11,0z"/>
<defs>
	<filter id="Adobe_OpacityMaskFilter" filterUnits="userSpaceOnUse" x="9.9" y="4.5" width="2.2" height="13.1">
		<feColorMatrix  type="matrix" values="1 0 0 0 0  0 1 0 0 0  0 0 1 0 0  0 0 0 1 0"/>
	</filter>
</defs>
<mask maskUnits="userSpaceOnUse" x="9.9" y="4.5" width="2.2" height="13.1" id="mask-2_00000161597437517545874660000003078145042465670787_">
	<g class="st1">
		<circle id="path-1_00000155112187442010103190000005751898634291536057_" class="st2" cx="11" cy="11" r="11"/>
	</g>
</mask>
<path id="形状结合" class="st3" d="M11,6.7c0.6,0,1.1-0.5,1.1-1.1c0-0.6-0.5-1.1-1.1-1.1S9.9,5,9.9,5.6C9.9,6.2,10.4,6.7,11,6.7
	z M11,17.6c0.5,0,0.8-0.3,0.9-0.8l0-0.1V9.5c0-0.5-0.4-0.9-0.9-0.9c-0.5,0-0.8,0.4-0.9,0.8l0,0.1v7.1C10.1,17.2,10.5,17.6,11,17.6z"
	/>
</svg>
