<?xml version="1.0" encoding="utf-8"?>
<!-- Generator: Adobe Illustrator 26.5.0, SVG Export Plug-In . SVG Version: 6.00 Build 0)  -->
<svg version="1.1" id="图层_1" xmlns="http://www.w3.org/2000/svg" xmlns:xlink="http://www.w3.org/1999/xlink" x="0px" y="0px"
	 width="22px" height="22px" viewBox="0 0 22 22" style="enable-background:new 0 0 22 22;" xml:space="preserve">
<style type="text/css">
	.st0{fill-rule:evenodd;clip-rule:evenodd;fill:#27C268;}
	.st1{fill-rule:evenodd;clip-rule:evenodd;fill:#FFFFFF;}
</style>
<path class="st0" d="M11,0c6.1,0,11,4.9,11,11s-4.9,11-11,11S0,17.1,0,11S4.9,0,11,0z"/>
<path class="st1" d="M16.5,8.4l-6.2,6.4C10.1,14.9,9.9,15,9.7,15c-0.2,0-0.4-0.1-0.6-0.2L6,11.5c-0.3-0.3-0.3-0.8,0-1.2
	c0.3-0.3,0.8-0.3,1.1,0L9.7,13l5.7-5.8c0.3-0.3,0.8-0.3,1.1,0C16.8,7.6,16.8,8.1,16.5,8.4z"/>
</svg>
