<?xml version="1.0" encoding="utf-8"?>
<!-- Generator: Adobe Illustrator 26.5.0, SVG Export Plug-In . SVG Version: 6.00 Build 0)  -->
<svg version="1.1" id="图层_1" xmlns="http://www.w3.org/2000/svg" xmlns:xlink="http://www.w3.org/1999/xlink" x="0px" y="0px"
	 width="64px" height="64px" viewBox="0 0 64 64" style="enable-background:new 0 0 64 64;" xml:space="preserve">
<style type="text/css">
	.st0{fill-rule:evenodd;clip-rule:evenodd;fill:#27C268;}
	.st1{fill-rule:evenodd;clip-rule:evenodd;fill:#FFFFFF;}
</style>
<path class="st0" d="M32,0c17.7,0,32,14.3,32,32S49.7,64,32,64S0,49.7,0,32S14.3,0,32,0z"/>
<path class="st1" d="M48,24.4L29.9,42.9c-0.5,0.5-1.1,0.7-1.7,0.7s-1.2-0.2-1.7-0.7l-9.2-9.3c-0.9-0.9-0.9-2.4,0-3.4
	c0.9-0.9,2.4-0.9,3.3,0l7.5,7.7l16.5-16.8c0.9-0.9,2.4-0.9,3.3,0C49,22,49,23.5,48,24.4z"/>
</svg>
