<?xml version="1.0" encoding="utf-8"?>
<!-- Generator: Adobe Illustrator 26.5.0, SVG Export Plug-In . SVG Version: 6.00 Build 0)  -->
<svg version="1.1" id="图层_1" xmlns="http://www.w3.org/2000/svg" xmlns:xlink="http://www.w3.org/1999/xlink" x="0px" y="0px"
	 width="72px" height="72px" viewBox="0 0 72 72" style="enable-background:new 0 0 72 72;" xml:space="preserve">
<style type="text/css">
	.st0{fill-rule:evenodd;clip-rule:evenodd;fill:#0F87F7;}
</style>
<path id="path-1_00000070099739166896849190000004051824963818640296_" class="st0" d="M26.358,19.724
	c-4.109-0.957-7.852-2.492-11.007-4.484c5.295-5.227,12.569-8.472,20.594-8.489c-0.112,0.012-0.22,0.047-0.329,0.067
	c-0.129,0.026-0.252,0.05-0.376,0.099c-0.129,0.053-0.241,0.123-0.355,0.199c-0.076,0.05-0.161,0.073-0.232,0.132
	c-0.035,0.032-0.053,0.082-0.088,0.114c-0.038,0.038-0.082,0.053-0.117,0.094C31.688,10.626,28.668,14.789,26.358,19.724
	L26.358,19.724z M22.691,33.952H6.75c0.411-5.851,2.551-11.224,5.92-15.63c3.487,2.302,7.605,4.081,12.123,5.219
	C23.648,26.75,22.912,30.249,22.691,33.952L22.691,33.952z M24.793,48.465c-4.514,1.138-8.636,2.914-12.123,5.216
	c-3.37-4.405-5.51-9.779-5.92-15.633h15.939C22.906,41.748,23.642,45.25,24.793,48.465L24.793,48.465z M49.311,38.048H65.25
	c-0.411,5.854-2.548,11.227-5.92,15.633c-3.487-2.302-7.605-4.078-12.12-5.216C48.358,45.25,49.094,41.748,49.311,38.048
	L49.311,38.048z M35.856,65.25c-7.987-0.041-15.228-3.276-20.503-8.486c3.152-1.995,6.901-3.525,11.01-4.484
	c2.307,4.926,5.325,9.086,8.081,12.266c0.032,0.038,0.076,0.05,0.112,0.085c0.041,0.038,0.059,0.091,0.1,0.129
	c0.106,0.091,0.229,0.135,0.346,0.202c0.076,0.044,0.141,0.097,0.223,0.129C35.428,65.171,35.642,65.224,35.856,65.25L35.856,65.25z
	 M45.637,52.279c4.112,0.959,7.858,2.489,11.01,4.484c-5.272,5.21-12.513,8.445-20.503,8.486c0.214-0.026,0.429-0.079,0.634-0.161
	c0.079-0.032,0.147-0.085,0.22-0.129c0.117-0.067,0.241-0.111,0.346-0.202c0.044-0.038,0.062-0.091,0.1-0.129
	c0.035-0.035,0.082-0.047,0.114-0.085C40.312,61.365,43.329,57.205,45.637,52.279L45.637,52.279z M47.21,23.541
	c4.517-1.138,8.636-2.917,12.12-5.219c3.373,4.405,5.51,9.779,5.92,15.63H49.309C49.088,30.249,48.352,26.75,47.21,23.541
	L47.21,23.541z M36.062,6.75c8.019,0.018,15.296,3.262,20.588,8.489c-3.155,1.992-6.895,3.528-11.007,4.484
	c-2.31-4.935-5.328-9.098-8.09-12.269c-0.032-0.041-0.079-0.056-0.114-0.094c-0.035-0.032-0.053-0.082-0.091-0.114
	c-0.068-0.059-0.156-0.079-0.229-0.129c-0.117-0.076-0.229-0.149-0.355-0.202c-0.123-0.05-0.247-0.076-0.376-0.099
	C36.279,6.797,36.17,6.762,36.062,6.75L36.062,6.75z M43.112,24.378c1.107,2.96,1.864,6.164,2.093,9.574H26.798
	c0.229-3.411,0.983-6.614,2.09-9.574c2.301,0.354,4.673,0.556,7.112,0.556S40.814,24.732,43.112,24.378L43.112,24.378z
	 M26.798,38.048c0.223,3.408,0.977,6.614,2.09,9.58c2.301-0.354,4.673-0.556,7.112-0.556s4.814,0.202,7.112,0.556
	c1.112-2.966,1.87-6.172,2.093-9.58H26.798z M36,51.168c-1.852,0-3.657,0.126-5.419,0.348c1.609,3.209,3.522,6.064,5.419,8.457
	c1.899-2.393,3.81-5.248,5.419-8.457C39.657,51.293,37.852,51.168,36,51.168L36,51.168z M30.576,20.49
	c1.611-3.218,3.525-6.079,5.424-8.466c1.902,2.387,3.813,5.248,5.424,8.466c-1.764,0.219-3.572,0.348-5.424,0.348
	S32.34,20.709,30.576,20.49L30.576,20.49z"/>
</svg>
