<?xml version="1.0" encoding="utf-8"?>
<!-- Generator: Adobe Illustrator 26.5.0, SVG Export Plug-In . SVG Version: 6.00 Build 0)  -->
<svg version="1.1" id="图层_1" xmlns="http://www.w3.org/2000/svg" xmlns:xlink="http://www.w3.org/1999/xlink" x="0px" y="0px"
	 width="72px" height="72px" viewBox="0 0 72 72" style="enable-background:new 0 0 72 72;" xml:space="preserve">
<style type="text/css">
	.st0{opacity:0.3;fill-rule:evenodd;clip-rule:evenodd;}
	.st1{fill-rule:evenodd;clip-rule:evenodd;fill:#FF4D4F;}
</style>
<path id="path-1_00000164480287688049693200000005355359574721103803_" class="st0" d="M37.137,6.066
	C37.029,6.045,36.921,6.012,36.81,6c8.019,0.018,15.297,3.261,20.589,8.49c-3.156,1.992-6.894,3.528-11.007,4.485
	c-2.31-4.935-5.328-9.099-8.091-12.27c-0.033-0.042-0.078-0.054-0.114-0.093c-0.036-0.033-0.054-0.081-0.09-0.114
	c-0.069-0.06-0.156-0.078-0.228-0.129c-0.117-0.075-0.228-0.15-0.354-0.201C37.389,6.117,37.266,6.09,37.137,6.066z M36.75,20.088
	c1.851,0,3.66-0.129,5.424-0.348c-1.611-3.219-3.522-6.078-5.424-8.466c-1.899,2.388-3.813,5.247-5.424,8.466
	C33.09,19.959,34.899,20.088,36.75,20.088z M35.196,6.705c0.036-0.042,0.078-0.054,0.117-0.093c0.036-0.033,0.054-0.081,0.087-0.114
	c0.069-0.06,0.156-0.081,0.231-0.132c0.114-0.075,0.225-0.147,0.354-0.198c0.123-0.051,0.246-0.072,0.375-0.099
	c0.108-0.021,0.216-0.054,0.33-0.066c-8.025,0.018-15.3,3.261-20.595,8.49c3.156,1.992,6.897,3.528,11.007,4.485
	C29.418,14.04,32.439,9.876,35.196,6.705z M29.637,46.878c2.301-0.354,4.674-0.555,7.113-0.555c0.327,0,0.642,0.033,0.966,0.039
	v-3.531c0-2.16,0.876-4.116,2.289-5.532H27.549C27.771,40.707,28.524,43.911,29.637,46.878z M50.058,33.201H66
	c-0.411-5.85-2.547-11.223-5.922-15.63c-3.483,2.301-7.602,4.08-12.12,5.22C49.101,26.001,49.839,29.499,50.058,33.201z
	 M36.75,24.183c-2.439,0-4.812-0.201-7.113-0.555c-1.107,2.961-1.86,6.165-2.091,9.576h18.408c-0.228-3.411-0.987-6.615-2.094-9.576
	C41.565,23.982,39.189,24.183,36.75,24.183z M37.716,50.451c-0.324-0.009-0.639-0.033-0.966-0.033c-1.851,0-3.657,0.126-5.418,0.348
	c1.608,3.21,3.522,6.063,5.418,8.457c0.321-0.405,0.642-0.843,0.966-1.275V50.451z M35.751,64.209
	c-0.117-0.066-0.24-0.111-0.345-0.201c-0.042-0.039-0.06-0.09-0.099-0.129c-0.036-0.036-0.078-0.048-0.111-0.084
	c-2.757-3.18-5.775-7.341-8.082-12.267c-4.11,0.96-7.857,2.49-11.01,4.485c5.274,5.211,12.516,8.445,20.502,8.487
	c-0.213-0.027-0.429-0.078-0.63-0.162C35.892,64.308,35.829,64.254,35.751,64.209z M25.542,22.791
	c-4.518-1.137-8.637-2.916-12.123-5.22c-3.369,4.407-5.508,9.78-5.919,15.63h15.942C23.661,29.499,24.399,26.001,25.542,22.791z
	 M23.439,37.299H7.5c0.411,5.853,2.55,11.226,5.922,15.633c3.486-2.301,7.608-4.077,12.123-5.217
	C24.393,44.499,23.655,40.998,23.439,37.299z"/>
<path class="st1" d="M58.274,50.703l6.003-6.006c1.095-1.095,1.095-2.874,0-3.975c-0.546-0.549-1.263-0.822-1.986-0.822
	c-0.717,0-1.434,0.273-1.98,0.822l-6.012,6.003l-6.012-6.003c-0.546-0.549-1.263-0.822-1.98-0.822c-0.723,0-1.44,0.273-1.986,0.822
	c-1.095,1.098-1.095,2.877,0,3.975l6,6.006l-6,6.006c-1.095,1.095-1.095,2.874,0,3.972c0.54,0.552,1.269,0.825,1.98,0.825
	c0.723,0,1.44-0.273,1.986-0.825l6.012-6.003l6.012,6.003c0.546,0.552,1.263,0.825,1.986,0.825c0.714,0,1.44-0.273,1.98-0.825
	c1.095-1.095,1.095-2.874,0-3.972L58.274,50.703z"/>
</svg>
