<svg xmlns="http://www.w3.org/2000/svg" xmlns:xlink="http://www.w3.org/1999/xlink" version="1.1" id="图层_1" x="0px" y="0px" width="24px" height="24px" viewBox="0 0 24 24" style="enable-background:new 0 0 24 24;" xml:space="preserve">
  <path style="fill:none; stroke:#000; stroke-width:2" d="M4 4 L4 20 L20 20 L20 4 Z M4 4 L20 4 M4 20 L20 20 M4 8 L20 8 M4 12 L20 12 M4 16 L20 16" />
  <path style="fill:none; stroke:#000; stroke-width:2" d="M12 2 L12 4 M8 2 L8 4 M16 2 L16 4" />
  <path style="fill:none; stroke:#000; stroke-width:2" d="M12 20 L12 22 M8 20 L8 22 M16 20 L16 22" />
  <path style="fill:#000" d="M6 8 L10 8 L10 10 L6 10 Z M6 12 L10 12 L10 14 L6 14 Z M14 8 L18 8 L18 10 L14 10 Z M14 12 L18 12 L18 14 L14 14 Z" />
  <path style="fill:none; stroke:#000; stroke-width:2" d="M2 10 L4 10 M20 10 L22 10" />
  <path style="fill:none; stroke:#000; stroke-width:2" d="M2 14 L4 14 M20 14 L22 14" />
</svg>