<?xml version="1.0" encoding="utf-8"?>
<!-- Generator: Adobe Illustrator 26.5.0, SVG Export Plug-In . SVG Version: 6.00 Build 0)  -->
<svg version="1.1" id="图层_1" xmlns="http://www.w3.org/2000/svg" xmlns:xlink="http://www.w3.org/1999/xlink" x="0px" y="0px"
	 width="22px" height="22px" viewBox="0 0 22 22" style="enable-background:new 0 0 22 22;" xml:space="preserve">
<style type="text/css">
	.st0{fill-rule:evenodd;clip-rule:evenodd;}
</style>
<path id="path-1_00000068648537573885119170000007482959270628124317_" class="st0" d="M14.84,10.42
	c-0.048-1.106-0.231-2.193-0.545-3.24c0.963-0.233,1.895-0.583,2.786-1.013c0.945,1.185,1.547,2.651,1.666,4.252H14.84z
	 M14.293,14.822c0.315-1.047,0.498-2.134,0.546-3.241h3.907c-0.119,1.602-0.722,3.068-1.667,4.254
	C16.188,15.404,15.258,15.055,14.293,14.822z M13.907,15.925c0.801,0.186,1.576,0.463,2.332,0.803
	c-1.046,0.957-2.348,1.635-3.795,1.907C13.04,17.791,13.527,16.879,13.907,15.925z M8.093,15.924
	c0.381,0.954,0.863,1.865,1.458,2.712c-1.445-0.273-2.746-0.951-3.79-1.907C6.517,16.388,7.292,16.109,8.093,15.924z M7.16,11.581
	c0.048,1.104,0.231,2.19,0.545,3.236c-0.957,0.231-1.886,0.577-2.787,1.014c-0.944-1.185-1.545-2.65-1.664-4.25H7.16z M7.707,7.178
	c-0.315,1.048-0.5,2.136-0.548,3.242H3.254c0.119-1.598,0.719-3.06,1.66-4.244C5.806,6.606,6.743,6.945,7.707,7.178z M8.096,6.069
	C7.292,5.882,6.513,5.607,5.763,5.27c1.043-0.955,2.343-1.631,3.786-1.905C8.956,4.208,8.477,5.119,8.096,6.069z M12.443,3.365
	c1.448,0.273,2.75,0.95,3.796,1.907c-0.756,0.341-1.531,0.618-2.331,0.804C13.528,5.122,13.04,4.211,12.443,3.365z M11,6.411
	c-0.582,0-1.161-0.05-1.736-0.128c0.438-1.037,1.018-2.013,1.734-2.897c0.717,0.886,1.3,1.861,1.738,2.898
	C12.165,6.362,11.588,6.411,11,6.411z M8.321,10.42c0.05-1.031,0.231-2.044,0.534-3.019C9.564,7.511,10.281,7.573,11,7.573
	c0.719,0,1.433-0.076,2.141-0.186c0.306,0.979,0.487,1.996,0.537,3.032H8.321z M12.737,15.715c-0.439,1.038-1.021,2.014-1.737,2.899
	c-0.717-0.885-1.298-1.861-1.736-2.898c0.571-0.077,1.148-0.126,1.737-0.126S12.165,15.638,12.737,15.715z M11,14.428
	c-0.727,0-1.438,0.074-2.142,0.182c-0.306-0.979-0.487-1.995-0.537-3.029h5.358c-0.05,1.037-0.231,2.054-0.537,3.032
	C12.433,14.503,11.719,14.428,11,14.428z M11,2.062c-4.936,0-8.938,4.002-8.938,8.938c0,4.936,4.001,8.938,8.938,8.938
	s8.938-4.001,8.938-8.938C19.938,6.065,15.936,2.062,11,2.062L11,2.062z"/>
</svg>
