<?xml version="1.0" encoding="utf-8"?>
<!-- Generator: Adobe Illustrator 26.5.0, SVG Export Plug-In . SVG Version: 6.00 Build 0)  -->
<svg version="1.1" id="图层_1" xmlns="http://www.w3.org/2000/svg" xmlns:xlink="http://www.w3.org/1999/xlink" x="0px" y="0px"
	 width="22px" height="22px" viewBox="0 0 22 22" style="enable-background:new 0 0 22 22;" xml:space="preserve">
<style type="text/css">
	.st0{fill-rule:evenodd;clip-rule:evenodd;}
</style>
<path id="path-1_00000124873043734877472720000014792262939514550428_" class="st0" d="M8.054,6.027
	C6.798,5.734,5.655,5.265,4.69,4.656c1.618-1.597,3.84-2.589,6.293-2.594c-0.034,0.004-0.067,0.014-0.1,0.021
	c-0.039,0.008-0.077,0.015-0.115,0.03c-0.039,0.016-0.074,0.038-0.109,0.061c-0.023,0.015-0.049,0.022-0.071,0.04
	c-0.011,0.01-0.016,0.025-0.027,0.035c-0.012,0.012-0.025,0.016-0.036,0.029C9.682,3.247,8.76,4.519,8.054,6.027L8.054,6.027z
	 M6.934,10.374H2.062c0.126-1.788,0.779-3.43,1.809-4.776c1.066,0.703,2.324,1.247,3.704,1.595
	C7.226,8.174,7.001,9.243,6.934,10.374L6.934,10.374z M7.576,14.809c-1.379,0.348-2.639,0.89-3.704,1.594
	c-1.03-1.346-1.683-2.988-1.809-4.777h4.87C6.999,12.756,7.224,13.826,7.576,14.809L7.576,14.809z M15.067,11.626h4.87
	c-0.126,1.789-0.778,3.431-1.809,4.777c-1.066-0.703-2.324-1.246-3.703-1.594C14.776,13.826,15.001,12.756,15.067,11.626
	L15.067,11.626z M10.956,19.938c-2.44-0.013-4.653-1.001-6.265-2.593c0.963-0.61,2.109-1.077,3.364-1.37
	c0.705,1.505,1.627,2.776,2.469,3.748c0.01,0.012,0.023,0.015,0.034,0.026c0.013,0.012,0.018,0.028,0.03,0.039
	c0.032,0.028,0.07,0.041,0.106,0.062c0.023,0.013,0.043,0.029,0.068,0.039C10.825,19.913,10.891,19.929,10.956,19.938L10.956,19.938
	z M13.944,15.974c1.257,0.293,2.401,0.761,3.364,1.37c-1.611,1.592-3.823,2.581-6.265,2.593c0.065-0.008,0.131-0.024,0.194-0.049
	c0.024-0.01,0.045-0.026,0.067-0.039c0.036-0.021,0.074-0.034,0.106-0.062c0.013-0.012,0.019-0.028,0.03-0.039
	c0.011-0.011,0.025-0.014,0.035-0.026C12.318,18.75,13.24,17.479,13.944,15.974L13.944,15.974z M14.425,7.193
	c1.38-0.348,2.639-0.891,3.703-1.595c1.031,1.346,1.683,2.988,1.809,4.776h-4.871C14.999,9.243,14.774,8.174,14.425,7.193
	L14.425,7.193z M11.019,2.062c2.45,0.005,4.674,0.997,6.291,2.594c-0.964,0.609-2.107,1.078-3.363,1.37
	c-0.706-1.508-1.628-2.78-2.472-3.749c-0.01-0.013-0.024-0.017-0.035-0.029c-0.011-0.01-0.016-0.025-0.028-0.035
	c-0.021-0.018-0.048-0.024-0.07-0.039c-0.036-0.023-0.07-0.046-0.109-0.062c-0.038-0.015-0.075-0.023-0.115-0.03
	C11.085,2.077,11.052,2.066,11.019,2.062L11.019,2.062z M13.173,7.449c0.338,0.905,0.57,1.883,0.639,2.926H8.188
	c0.07-1.042,0.3-2.021,0.639-2.926C9.53,7.557,10.255,7.619,11,7.619S12.471,7.557,13.173,7.449L13.173,7.449z M8.188,11.626
	c0.068,1.041,0.299,2.021,0.639,2.927c0.703-0.108,1.428-0.17,2.173-0.17s1.471,0.062,2.173,0.17
	c0.34-0.906,0.571-1.886,0.639-2.927H8.188z M11,15.635c-0.566,0-1.118,0.038-1.656,0.106c0.491,0.981,1.076,1.853,1.656,2.584
	c0.58-0.731,1.164-1.604,1.656-2.584C12.118,15.673,11.566,15.635,11,15.635L11,15.635z M9.343,6.261
	C9.835,5.278,10.42,4.403,11,3.674c0.581,0.729,1.165,1.604,1.657,2.587C12.118,6.328,11.566,6.367,11,6.367
	S9.882,6.328,9.343,6.261L9.343,6.261z"/>
</svg>
