<?xml version="1.0" encoding="utf-8"?>
<!-- Generator: Adobe Illustrator 26.5.0, SVG Export Plug-In . SVG Version: 6.00 Build 0)  -->
<svg version="1.1" id="图层_1" xmlns="http://www.w3.org/2000/svg" xmlns:xlink="http://www.w3.org/1999/xlink" x="0px" y="0px"
	 width="24px" height="24px" viewBox="0 0 24 24" style="enable-background:new 0 0 24 24;" xml:space="preserve">
<path id="path-1_00000137832965726576526480000010947277266161704869_" style="fill-rule:evenodd;clip-rule:evenodd;" d="
	M18.481,11.827c-0.766,0-1.389-0.627-1.389-1.384c0-0.768,0.623-1.384,1.389-1.384c0.767,0,1.39,0.616,1.39,1.384
	C19.871,11.2,19.247,11.827,18.481,11.827z M21.5,10.443c0-1.665-1.354-3.005-3.019-3.005c-1.664,0-3.018,1.341-3.018,3.005
	c0,1.373,0.936,2.519,2.204,2.876V16.8c0,1.968-1.972,3.578-4.395,3.578S8.877,18.768,8.877,16.8v-1.762l0.119-0.032l1.217-0.508
	c0.739-0.303,1.283-0.951,1.446-1.686l1.914-7.103c0.25-1.124-0.344-2.281-1.413-2.746l-0.408-0.184C11.583,2.324,11.152,2,10.633,2
	C9.971,2,9.435,2.53,9.435,3.189s0.537,1.189,1.198,1.189c0.173,0,0.337-0.032,0.485-0.097l0.393,0.173
	c0.356,0.151,0.554,0.53,0.48,0.876l-1.915,7.092c-0.058,0.259-0.239,0.476-0.485,0.584l-1.217,0.497
	c-0.1,0.043-0.204,0.065-0.31,0.065H8.061c-0.105,0-0.21-0.022-0.31-0.065l-1.217-0.497c-0.248-0.108-0.429-0.324-0.494-0.616
	L4.142,5.362c-0.084-0.378,0.115-0.757,0.47-0.908l0.39-0.173c0.147,0.065,0.308,0.097,0.48,0.097c0.663,0,1.2-0.53,1.2-1.189
	S6.145,2,5.483,2c-0.519,0-0.95,0.324-1.118,0.789l-0.4,0.173C2.897,3.427,2.302,4.584,2.56,5.751l1.897,7.016
	c0.171,0.778,0.714,1.427,1.454,1.73l1.217,0.508l0.118,0.032V16.8c0,2.865,2.702,5.2,6.023,5.2c3.322,0,6.024-2.335,6.024-5.2
	v-3.481C20.564,12.962,21.5,11.816,21.5,10.443L21.5,10.443z"/>
</svg>
