<?xml version="1.0" encoding="utf-8"?>
<!-- Generator: Adobe Illustrator 26.5.0, SVG Export Plug-In . SVG Version: 6.00 Build 0)  -->
<svg version="1.1" id="图层_1" xmlns="http://www.w3.org/2000/svg" xmlns:xlink="http://www.w3.org/1999/xlink" x="0px" y="0px"
	 width="24px" height="24px" viewBox="0 0 24 24" style="enable-background:new 0 0 24 24;" xml:space="preserve">
<style type="text/css">
	.st0{fill-rule:evenodd;clip-rule:evenodd;}
</style>
<path id="path-1_00000083805329575939054810000014912243870117514389_" class="st0" d="M21,21.5H3c-0.414,0-0.75-0.335-0.75-0.75
	C2.25,20.336,2.586,20,3,20h18c0.414,0,0.75,0.336,0.75,0.75C21.75,21.165,21.414,21.5,21,21.5z M17.186,6.395l-1.207,1.208
	l-2.202-2.202l1.208-1.207c0.141-0.142,0.346-0.223,0.559-0.223c0.213,0,0.417,0.081,0.559,0.223l1.083,1.083
	C17.494,5.585,17.494,6.087,17.186,6.395z M14.93,8.652l-8.495,8.494H4.234v-2.2l8.495-8.496L14.93,8.652z M18.235,4.229
	l-1.083-1.084C16.742,2.736,16.156,2.5,15.544,2.5c-0.611,0-1.198,0.235-1.608,0.645L2.967,14.114
	c-0.14,0.14-0.217,0.326-0.217,0.524v3.251c0,0.408,0.333,0.741,0.742,0.741h3.25c0.195,0,0.386-0.079,0.525-0.217L18.235,7.444
	c0.429-0.43,0.665-1,0.665-1.608C18.9,5.229,18.664,4.658,18.235,4.229L18.235,4.229z"/>
</svg>
