<?xml version="1.0" encoding="utf-8"?>
<!-- Generator: Adobe Illustrator 26.5.0, SVG Export Plug-In . SVG Version: 6.00 Build 0)  -->
<svg version="1.1" id="图层_1" xmlns="http://www.w3.org/2000/svg" xmlns:xlink="http://www.w3.org/1999/xlink" x="0px" y="0px"
	 width="24px" height="24px" viewBox="0 0 24 24" style="enable-background:new 0 0 24 24;" xml:space="preserve">
<style type="text/css">
	.st0{fill-rule:evenodd;clip-rule:evenodd;}
</style>
<path id="path-1_00000021834314466873728880000007901676511836793527_" class="st0" d="M18.498,15.955
	c-0.651,0-1.18,0.536-1.18,1.195s0.529,1.194,1.18,1.194s1.182-0.535,1.182-1.194S19.149,15.955,18.498,15.955 M18.498,19.4
	c-1.232,0-2.234-1.01-2.234-2.25c0-1.241,1.002-2.25,2.234-2.25s2.235,1.009,2.235,2.25C20.733,18.39,19.73,19.4,18.498,19.4
	 M22.724,15.726c-0.004-0.011-0.169-0.484-0.357-0.809c-0.133-0.229-0.356-0.519-0.52-0.713c-0.079-0.092-0.144-0.112-0.162-0.112
	c-0.858,0.495-1.779,0.172-2.199-0.553c-0.127-0.219-0.172-0.484-0.185-0.587c-0.012-0.114-0.105-0.204-0.207-0.213l-1.355,0.024
	c-0.011,0.002-0.042,0.013-0.074,0.031c-0.071,0.041-0.127,0.111-0.144,0.177c-0.008,0.035-0.222,0.873-0.732,1.167
	c-0.169,0.097-0.39,0.147-0.657,0.147c-0.306,0-0.605-0.065-0.734-0.103c-0.065-0.018-0.155-0.005-0.224,0.034
	c-0.034,0.02-0.058,0.041-0.078,0.066l-0.725,1.198c-0.032,0.073,0,0.198,0.082,0.258c0.05,0.037,0.287,0.221,0.426,0.463
	c0.209,0.363,0.265,0.788,0.156,1.195c-0.109,0.408-0.37,0.748-0.735,0.959c-0.049,0.033-0.069,0.098-0.027,0.219
	c0.002,0.005,0.171,0.486,0.358,0.809c0.107,0.187,0.289,0.436,0.511,0.702c0.085,0.1,0.149,0.121,0.17,0.123
	c0.003-0.002,0.005-0.003,0.008-0.005c0.275-0.159,0.547-0.232,0.822-0.232c0.563,0,1.088,0.303,1.369,0.789
	c0.127,0.218,0.172,0.483,0.186,0.587c0.012,0.112,0.1,0.2,0.201,0.213l1.338-0.018c0.01-0.004,0.042-0.015,0.074-0.033
	c0.067-0.039,0.121-0.108,0.136-0.175c0.003-0.009,0.211-0.913,0.738-1.216c0.166-0.096,0.381-0.145,0.639-0.145
	c0.323,0,0.651,0.076,0.794,0.121c0.022,0.008,0.047,0.011,0.072,0.011c0.052,0,0.107-0.014,0.153-0.042
	c0.031-0.017,0.055-0.038,0.071-0.06l0.714-1.184c0.032-0.073,0-0.198-0.083-0.259l0.001-0.001
	c-0.124-0.087-0.316-0.269-0.426-0.461c-0.434-0.751-0.175-1.718,0.578-2.153l0.002,0.002c0.013-0.01,0.027-0.019,0.042-0.028
	C22.749,15.908,22.763,15.838,22.724,15.726 M12.922,19.5H4.7V18c0-1.883,4.429-3.3,7.3-3.3c0.288,0,0.612,0.022,0.944,0.054
	c0.216-0.501,0.498-0.972,0.846-1.402C13.157,13.262,12.542,13.2,12,13.2c-2.973,0-8.8,1.449-8.8,4.8v2.2C3.2,20.614,3.586,21,4,21
	h9.832C13.453,20.542,13.149,20.037,12.922,19.5 M12,4.5c-1.599,0-2.9,1.301-2.9,2.9s1.301,2.899,2.9,2.899
	c1.6,0,2.901-1.3,2.901-2.899S13.6,4.5,12,4.5 M12,11.799c-2.427,0-4.4-1.973-4.4-4.399S9.573,3,12,3s4.401,1.974,4.401,4.4
	S14.427,11.799,12,11.799"/>
</svg>
