<?xml version="1.0" encoding="utf-8"?>
<!-- Generator: Adobe Illustrator 26.5.0, SVG Export Plug-In . SVG Version: 6.00 Build 0)  -->
<svg version="1.1" id="图层_1" xmlns="http://www.w3.org/2000/svg" xmlns:xlink="http://www.w3.org/1999/xlink" x="0px" y="0px"
	 width="72px" height="72px" viewBox="0 0 72 72" style="enable-background:new 0 0 72 72;" xml:space="preserve">
<style type="text/css">
	.st0{fill-rule:evenodd;clip-rule:evenodd;fill:#0F87F7;}
</style>
<path id="path-1_00000141426376625244100000000002798803878060755844_" class="st0" d="M37.125,30.733
	c0-5.046,4.104-9.153,9.15-9.153H59.85c0.915,0,1.782,0.177,2.616,0.429c1.137-0.096,2.034-0.891,2.034-2.508
	c0-3.72-3.027-6.75-6.75-6.75h-43.5c-3.723,0-6.75,3.03-6.75,6.75v25.5c0,3.708,3.012,6.732,6.72,6.747
	c0,0,21.825,0.006,20.586,0.003c1.167-0.006,2.094-0.906,2.202-2.043h0.117V30.733z M59.85,26.08H46.275
	c-2.565,0-4.65,2.088-4.65,4.653v23.865c0,2.568,2.085,4.653,4.65,4.653H59.85c2.565,0,4.65-2.085,4.65-4.653V30.733
	C64.5,28.168,62.415,26.08,59.85,26.08L59.85,26.08z M34.806,54.751c1.239,0.003,2.244,1.008,2.244,2.247
	c0,1.242-1.008,2.25-2.25,2.25H14.25c-1.242,0-2.25-1.008-2.25-2.25s1.008-2.25,2.25-2.25C14.25,54.748,36.045,54.745,34.806,54.751
	L34.806,54.751z"/>
</svg>
