<?xml version="1.0" encoding="utf-8"?>
<!-- Generator: Adobe Illustrator 26.5.0, SVG Export Plug-In . SVG Version: 6.00 Build 0)  -->
<svg version="1.1" id="图层_1" xmlns="http://www.w3.org/2000/svg" xmlns:xlink="http://www.w3.org/1999/xlink" x="0px" y="0px"
	 width="24px" height="24px" viewBox="0 0 24 24" style="enable-background:new 0 0 24 24;" xml:space="preserve">
<g>
	<path d="M6.25,9.25c0-0.414-0.336-0.75-0.75-0.75h-2c-0.414,0-0.75,0.336-0.75,0.75C2.75,9.664,3.086,10,3.5,10h2
		C5.914,10,6.25,9.664,6.25,9.25z M6.25,12c0-0.414-0.336-0.75-0.75-0.75h-2c-0.414,0-0.75,0.336-0.75,0.75
		c0,0.414,0.336,0.75,0.75,0.75h2C5.914,12.75,6.25,12.414,6.25,12z M6.25,14.75C6.25,14.336,5.914,14,5.5,14h-2
		c-0.414,0-0.75,0.336-0.75,0.75c0,0.414,0.336,0.75,0.75,0.75h2C5.914,15.5,6.25,15.164,6.25,14.75z M19,3H6
		C4.757,3,3.75,4.007,3.75,5.25V7c0,0.276,0.224,0.5,0.5,0.5h1.16c0.803,0,1.663,0.629,1.809,1.418
		c0.099,0.534-0.047,1.036-0.344,1.413c-0.136,0.173-0.136,0.415,0,0.588C7.11,11.217,7.25,11.592,7.25,12
		c0,0.408-0.14,0.783-0.375,1.081c-0.136,0.173-0.137,0.415,0,0.588c0.297,0.377,0.443,0.879,0.344,1.413
		C7.073,15.871,6.213,16.5,5.41,16.5H4.25c-0.276,0-0.5,0.224-0.5,0.5v1.75C3.75,19.993,4.757,21,6,21h13
		c1.243,0,2.25-1.007,2.25-2.25V5.25C21.25,4.007,20.243,3,19,3z M17.997,14.631l-0.172,1.34c0,0-0.016,0.285-0.198,0.396
		c-0.214,0.129-0.315,0.135-0.46,0.134c-2.059-0.014-4.256-1.037-5.684-2.484C10.033,12.587,9.013,10.393,9,8.332
		C8.998,8.188,9.004,8.088,9.134,7.874c0.111-0.182,0.394-0.198,0.394-0.198l1.342-0.173c0,0,0.239-0.032,0.382,0.108
		c0.149,0.147,0.174,0.309,0.174,0.309l0.488,1.75c0.156,0.475-1.024,1.348-1.024,1.348c0.165,0.677,0.733,1.498,1.419,2.174
		c0.675,0.685,1.495,1.252,2.172,1.417c0,0,0.871-1.178,1.348-1.023l1.75,0.489c0,0,0.161,0.022,0.309,0.174
		C18.029,14.391,17.997,14.631,17.997,14.631z"/>
</g>
</svg>
