<?xml version="1.0" encoding="utf-8"?>
<!-- Generator: Adobe Illustrator 26.5.0, SVG Export Plug-In . SVG Version: 6.00 Build 0)  -->
<svg version="1.1" id="图层_1" xmlns="http://www.w3.org/2000/svg" xmlns:xlink="http://www.w3.org/1999/xlink" x="0px" y="0px"
	 width="24px" height="24px" viewBox="0 0 24 24" style="enable-background:new 0 0 24 24;" xml:space="preserve">
<path d="M9.528,7.676l1.342-0.173c0,0,0.239-0.032,0.382,0.108c0.149,0.147,0.174,0.309,0.174,0.309l0.488,1.75
	c0.156,0.475-1.024,1.348-1.024,1.348c0.165,0.677,0.733,1.498,1.419,2.174c0.675,0.685,1.495,1.252,2.172,1.417
	c0,0,0.871-1.178,1.348-1.023l1.75,0.489c0,0,0.161,0.022,0.309,0.174c0.142,0.143,0.109,0.383,0.109,0.383l-0.172,1.34
	c0,0-0.016,0.285-0.198,0.395c-0.214,0.129-0.316,0.135-0.46,0.134c-2.059-0.014-4.256-1.037-5.684-2.484
	c-1.45-1.43-2.47-3.624-2.483-5.685C8.998,8.189,9.004,8.088,9.134,7.874C9.245,7.692,9.528,7.676,9.528,7.676L9.528,7.676z
	 M21.25,18.75V5.25C21.25,4.01,20.241,3,19,3H6C4.759,3,3.75,4.01,3.75,5.25V7c0,0.414,0.336,0.75,0.75,0.75S5.25,7.414,5.25,7V5.25
	C5.25,4.836,5.586,4.5,6,4.5h13c0.414,0,0.75,0.336,0.75,0.75v13.5c0,0.414-0.336,0.75-0.75,0.75H6c-0.414,0-0.75-0.336-0.75-0.75
	V17c0-0.414-0.336-0.75-0.75-0.75S3.75,16.586,3.75,17v1.75C3.75,19.99,4.759,21,6,21h13C20.241,21,21.25,19.99,21.25,18.75z
	 M6.25,9.25c0-0.414-0.336-0.75-0.75-0.75h-2c-0.414,0-0.75,0.336-0.75,0.75S3.086,10,3.5,10h2C5.914,10,6.25,9.664,6.25,9.25z
	 M6.25,12c0-0.414-0.336-0.75-0.75-0.75h-2c-0.414,0-0.75,0.336-0.75,0.75s0.336,0.75,0.75,0.75h2C5.914,12.75,6.25,12.414,6.25,12z
	 M6.25,14.75C6.25,14.336,5.914,14,5.5,14h-2c-0.414,0-0.75,0.336-0.75,0.75S3.086,15.5,3.5,15.5h2
	C5.914,15.5,6.25,15.164,6.25,14.75z"/>
</svg>
