<?xml version="1.0" encoding="utf-8"?>
<!-- Generator: Adobe Illustrator 26.5.0, SVG Export Plug-In . SVG Version: 6.00 Build 0)  -->
<svg version="1.1" id="图层_1" xmlns="http://www.w3.org/2000/svg" xmlns:xlink="http://www.w3.org/1999/xlink" x="0px" y="0px"
	 width="22px" height="22px" viewBox="0 0 22 22" style="enable-background:new 0 0 22 22;" xml:space="preserve">
<style type="text/css">
	.st0{fill-rule:evenodd;clip-rule:evenodd;}
</style>
<path id="path-1_00000090296828448803005250000009656291610632951726_" class="st0" d="M11.344,9.391
	c0-1.542,1.254-2.797,2.796-2.797h4.148c0.28,0,0.545,0.054,0.799,0.131c0.347-0.029,0.622-0.272,0.622-0.766
	c0-1.137-0.925-2.062-2.062-2.062H4.354c-1.138,0-2.062,0.926-2.062,2.062v7.792c0,1.133,0.92,2.057,2.053,2.062
	c0,0,6.669,0.002,6.29,0.001c0.357-0.002,0.64-0.277,0.673-0.624h0.036V9.391z M18.288,7.969H14.14
	c-0.784,0-1.421,0.638-1.421,1.422v7.292c0,0.785,0.637,1.422,1.421,1.422h4.148c0.784,0,1.421-0.637,1.421-1.422V9.391
	C19.708,8.607,19.071,7.969,18.288,7.969L18.288,7.969z M10.635,16.729c0.379,0.001,0.686,0.308,0.686,0.687
	c0,0.379-0.308,0.688-0.688,0.688H4.354c-0.379,0-0.687-0.308-0.687-0.688s0.308-0.688,0.687-0.688
	C4.354,16.728,11.014,16.728,10.635,16.729L10.635,16.729z"/>
</svg>
