<?xml version="1.0" encoding="utf-8"?>
<!-- Generator: Adobe Illustrator 26.5.0, SVG Export Plug-In . SVG Version: 6.00 Build 0)  -->
<svg version="1.1" id="图层_1" xmlns="http://www.w3.org/2000/svg" xmlns:xlink="http://www.w3.org/1999/xlink" x="0px" y="0px"
	 width="72px" height="72px" viewBox="0 0 72 72" style="enable-background:new 0 0 72 72;" xml:space="preserve">
<style type="text/css">
	.st0{fill-rule:evenodd;clip-rule:evenodd;fill:#0F87F7;}
</style>
<path id="path-1_00000151531594085664096830000018185536767150863769_" class="st0" d="M66,44.13v9.09c0,3.75-3.027,6.78-6.75,6.78
	h-46.5C9.027,60,6,56.97,6,53.22v-9.09c0-3.72,3.027-6.78,6.75-6.78h36.165v-3.66l-0.552-0.36c-1.464-1.47-1.464-3.84,0-5.31
	c1.464-1.47,3.837-1.47,5.304,0c1.464,1.47,1.464,3.84,0,5.31l-0.552,0.36v3.66h6.135C62.973,37.35,66,40.41,66,44.13z
	 M59.196,25.44c0.819-0.81,0.819-2.16,0-2.97c-4.512-4.53-11.85-4.53-16.362,0c-0.819,0.81-0.819,2.16,0,2.97
	c0.822,0.84,2.151,0.84,2.973,0c2.871-2.88,7.548-2.88,10.419,0c0.408,0.42,0.948,0.63,1.485,0.63
	C58.248,26.07,58.785,25.86,59.196,25.44z M65.235,19.38c0.819-0.81,0.822-2.16,0-2.97c-3.795-3.81-8.844-5.91-14.214-5.91
	c-5.367,0-10.416,2.1-14.211,5.91c-0.822,0.81-0.822,2.16,0,2.97c0.819,0.84,2.148,0.84,2.97,0c3.003-3,6.996-4.68,11.241-4.68
	c4.248,0,8.241,1.68,11.244,4.68c0.411,0.42,0.948,0.63,1.485,0.63C64.287,20.01,64.824,19.8,65.235,19.38z M35.562,45.66
	c-1.656,0-3,1.35-3,3.03c0,1.65,1.344,3,3,3c1.656,0,3-1.35,3-3C38.562,47.01,37.218,45.66,35.562,45.66z M17.562,45.66
	c-1.656,0-3,1.35-3,3.03c0,1.65,1.344,3,3,3s3-1.35,3-3C20.562,47.01,19.218,45.66,17.562,45.66z M26.688,45.66
	c-1.656,0-3,1.35-3,3.03c0,1.65,1.344,3,3,3s3-1.35,3-3C29.688,47.01,28.344,45.66,26.688,45.66z"/>
</svg>
