<?xml version="1.0" encoding="utf-8"?>
<!-- Generator: Adobe Illustrator 26.5.0, SVG Export Plug-In . SVG Version: 6.00 Build 0)  -->
<svg version="1.1" id="图层_1" xmlns="http://www.w3.org/2000/svg" xmlns:xlink="http://www.w3.org/1999/xlink" x="0px" y="0px"
	 width="72px" height="72px" viewBox="0 0 72 72" style="enable-background:new 0 0 72 72;" xml:space="preserve">
<style type="text/css">
	.st0{fill-rule:evenodd;clip-rule:evenodd;fill:#FF4D4F;}
	.st1{opacity:0.2;fill-rule:evenodd;clip-rule:evenodd;}
</style>
<path class="st0" d="M57.63,39.571c0.762,0.762,0.762,1.998,0,2.76c-0.381,0.381-0.882,0.57-1.38,0.57s-0.999-0.189-1.38-0.57
	L51,38.462l-3.87,3.87c-0.381,0.381-0.882,0.57-1.38,0.57s-0.999-0.189-1.38-0.57c-0.762-0.762-0.762-1.998,0-2.76l3.87-3.87
	l-3.87-3.873c-0.762-0.762-0.762-1.998,0-2.757c0.762-0.762,1.998-0.762,2.76,0l3.87,3.87l3.87-3.87c0.762-0.762,1.998-0.762,2.76,0
	c0.762,0.759,0.762,1.995,0,2.757l-3.87,3.873L57.63,39.571z"/>
<path id="path-3_00000023276435504575303350000003631113787541920952_" class="st1" d="M57.75,26.1c-0.6,0-1.2-0.3-1.5-0.6
	c-3-3-7.5-3-10.5,0c-0.9,0.9-2.1,0.9-3,0s-0.9-2.1,0-3c4.5-4.5,12-4.5,16.5,0c0.9,0.9,0.9,2.1,0,3C58.95,25.8,58.35,26.1,57.75,26.1
	 M38.7,48.6c0-1.5-1.5-3-3-3c-1.8,0-3,1.2-3,3c0,1.8,1.2,3,3,3S38.7,50.4,38.7,48.6 M29.7,48.6c0-1.5-1.5-3-3-3c-1.8,0-3,1.2-3,3
	c0,1.8,1.2,3,3,3C28.5,51.6,29.7,50.4,29.7,48.6 M20.7,48.6c0-1.5-1.5-3-3-3c-1.8,0-3,1.2-3,3c0,1.8,1.2,3,3,3
	C19.5,51.6,20.7,50.4,20.7,48.6 M66,44.1v9c0,3.6-3,6.9-6.6,6.9H12.6C9,60,6,57,6,53.1v-9c0-3.6,3-6.9,6.6-6.9h29.655l-0.705,0.705
	c-1.8,1.8-1.8,5.1,0,6.9c0.9,0.9,2.1,1.5,3.6,1.5c1.2,0,2.7-0.6,3.6-1.5l2.1-2.1l2.1,2.1c0.9,0.9,2.1,1.5,3.6,1.5
	c1.2,0,2.7-0.6,3.6-1.5c1.8-1.8,1.8-5.1,0-6.9l-0.666-0.663C63.192,37.455,66,40.623,66,44.1 M36.9,19.5c-0.9-0.9-0.9-2.1,0-3
	c3.6-3.9,8.7-6,14.1-6s10.2,2.1,14.1,6c0.9,0.9,0.9,2.1,0,3c-0.3,0.3-0.9,0.6-1.5,0.6s-1.2-0.3-1.5-0.6c-3-3-6.9-4.8-11.1-4.8
	s-8.1,1.8-11.1,4.8C39,20.4,37.8,20.4,36.9,19.5"/>
</svg>
