<?xml version="1.0" encoding="utf-8"?>
<!-- Generator: Adobe Illustrator 26.5.0, SVG Export Plug-In . SVG Version: 6.00 Build 0)  -->
<svg version="1.1" id="图层_1" xmlns="http://www.w3.org/2000/svg" xmlns:xlink="http://www.w3.org/1999/xlink" x="0px" y="0px"
	 width="22px" height="22px" viewBox="0 0 22 22" style="enable-background:new 0 0 22 22;" xml:space="preserve">
<style type="text/css">
	.st0{fill-rule:evenodd;clip-rule:evenodd;}
</style>
<path id="path-1_00000023990015160986001440000013760872787018889642_" class="st0" d="M20.167,13.163v2.778
	c0,1.146-0.925,2.072-2.062,2.072H3.896c-1.138,0-2.062-0.926-2.062-2.072v-2.778c0-1.137,0.925-2.072,2.062-2.072h0.666V4.033
	c0-0.379,0.308-0.688,0.688-0.688s0.688,0.308,0.688,0.688v7.058h10.125V4.033c0-0.379,0.308-0.688,0.688-0.688
	s0.688,0.308,0.688,0.688v7.058h0.666C19.242,11.092,20.167,12.027,20.167,13.163L20.167,13.163z M16.733,13.631
	c-0.506,0-0.917,0.412-0.917,0.926c0,0.504,0.411,0.917,0.917,0.917c0.506,0,0.917-0.413,0.917-0.917
	C17.649,14.043,17.239,13.631,16.733,13.631L16.733,13.631z M11.31,13.631c-0.507,0-0.917,0.412-0.917,0.926
	c0,0.504,0.41,0.917,0.917,0.917c0.506,0,0.917-0.413,0.917-0.917C12.226,14.043,11.816,13.631,11.31,13.631L11.31,13.631z
	 M14.938,14.557c0,0.504-0.411,0.917-0.917,0.917c-0.506,0-0.917-0.413-0.917-0.917c0-0.513,0.411-0.926,0.917-0.926
	C14.527,13.631,14.938,14.043,14.938,14.557L14.938,14.557z"/>
</svg>
