<?xml version="1.0" encoding="utf-8"?>
<!-- Generator: Adobe Illustrator 26.5.0, SVG Export Plug-In . SVG Version: 6.00 Build 0)  -->
<svg version="1.1" id="图层_1" xmlns="http://www.w3.org/2000/svg" xmlns:xlink="http://www.w3.org/1999/xlink" x="0px" y="0px"
	 width="22px" height="22px" viewBox="0 0 22 22" style="enable-background:new 0 0 22 22;" xml:space="preserve">
<style type="text/css">
	.st0{fill-rule:evenodd;clip-rule:evenodd;}
</style>
<path id="path-1_00000124134761368129404310000004168391719387707008_" class="st0" d="M14.208,10.313h-2.521V7.792
	c0-0.376-0.312-0.688-0.688-0.688s-0.688,0.312-0.688,0.688v2.521H7.792c-0.376,0-0.688,0.312-0.688,0.688s0.312,0.688,0.688,0.688
	h2.521v2.521c0,0.376,0.312,0.688,0.688,0.688s0.688-0.312,0.688-0.688v-2.521h2.521c0.376,0,0.688-0.312,0.688-0.688
	S14.584,10.313,14.208,10.313z M11,2.521l-0.229,0.046L4.29,5.445C4.088,5.537,3.96,5.738,3.96,5.958v4.327
	c0,4.272,2.97,8.213,6.903,9.176c0.092,0.028,0.183,0.028,0.275,0c0.486-0.119,0.972-0.284,1.439-0.504
	c1.357-0.614,2.567-1.604,3.502-2.86c1.265-1.696,1.962-3.758,1.962-5.812V5.958c0-0.22-0.128-0.422-0.33-0.513l-6.481-2.878
	L11,2.521z M11,20.854c-0.156,0-0.312-0.018-0.458-0.055c-4.538-1.109-7.957-5.628-7.957-10.514V5.958
	c0-0.761,0.449-1.457,1.155-1.769l6.472-2.878c0.504-0.22,1.072-0.22,1.577,0l6.472,2.878c0.706,0.312,1.155,1.008,1.155,1.769
	v4.327c0,2.347-0.788,4.703-2.228,6.628c-1.082,1.448-2.475,2.585-4.042,3.3c-0.541,0.247-1.109,0.44-1.687,0.587
	C11.312,20.836,11.156,20.854,11,20.854L11,20.854z"/>
</svg>
