<?xml version="1.0" encoding="utf-8"?>
<!-- Generator: Adobe Illustrator 26.5.0, SVG Export Plug-In . SVG Version: 6.00 Build 0)  -->
<svg version="1.1" id="图层_1" xmlns="http://www.w3.org/2000/svg" xmlns:xlink="http://www.w3.org/1999/xlink" x="0px" y="0px"
	 width="108px" height="108px" viewBox="0 0 108 108" style="enable-background:new 0 0 108 108;" xml:space="preserve">
<style type="text/css">
	.st0{fill-rule:evenodd;clip-rule:evenodd;fill:#E2F1FF;}
	.st1{fill-rule:evenodd;clip-rule:evenodd;fill:#0F87F7;}
</style>
<path class="st0" d="M16,0h76c8.837,0,16,7.163,16,16v76c0,8.837-7.163,16-16,16H16c-8.837,0-16-7.163-16-16V16
	C0,7.163,7.163,0,16,0z"/>
<path id="path-3_00000021810868798377205220000012498711291859725206_" class="st1" d="M39.219,47.232l-4.638-6.741
	c3-1.407,4.824-4.53,4.509-7.869c-0.384-3.993-4.053-7.122-8.358-7.122h-7.218C22.128,25.5,21,26.628,21,28.014v20.583
	C21,49.92,22.068,51,23.379,51c1.311,0,2.379-1.077,2.379-2.403v-7.323h3.567l5.979,8.688C35.748,50.613,36.48,51,37.263,51
	c0.489,0,0.957-0.15,1.362-0.435C39.696,49.812,39.963,48.318,39.219,47.232z M34.368,33.393c0,1.701-1.407,3.087-3.135,3.087
	h-5.469v-6.171h5.466C32.961,30.309,34.368,31.692,34.368,33.393z"/>
</svg>
