<?xml version="1.0" encoding="utf-8"?>
<!-- Generator: Adobe Illustrator 26.5.0, SVG Export Plug-In . SVG Version: 6.00 Build 0)  -->
<svg version="1.1" id="图层_1" xmlns="http://www.w3.org/2000/svg" xmlns:xlink="http://www.w3.org/1999/xlink" x="0px" y="0px"
	 width="78px" height="72px" viewBox="0 0 78 72" style="enable-background:new 0 0 78 72;" xml:space="preserve">
<style type="text/css">
	.st0{opacity:0.2;fill-rule:evenodd;clip-rule:evenodd;}
	.st1{fill-rule:evenodd;clip-rule:evenodd;fill:#0F87F7;}
</style>
<path id="path-1_00000080174609484342854400000004416883116884868025_" class="st0" d="M69.75,55.923c0,1.419-1.152,2.58-2.574,2.58
	h-2.355c-1.428,0-2.574-1.158-2.574-2.58V14.58c0-1.431,1.146-2.58,2.574-2.58h2.355c1.422,0,2.574,1.149,2.574,2.58V55.923z
	 M55.875,23.559c0-1.422-1.155-2.556-2.571-2.556h-2.358c-1.425,0-2.571,1.137-2.571,2.556v32.385c0,1.41,1.146,2.556,2.571,2.556
	h2.358c1.416,0,2.571-1.146,2.571-2.556V23.559z"/>
<path id="path-3_00000076593717961286373330000011455346953030341012_" class="st1" d="M39.429,29.7
	c1.422,0,2.571,1.146,2.571,2.562l0,0v23.673c0,1.41-1.149,2.562-2.571,2.562l0,0h-2.358c-1.422,0-2.571-1.149-2.571-2.562l0,0
	V32.262c0-1.416,1.149-2.562,2.571-2.562l0,0H39.429z M25.554,38.346c1.422,0,2.571,1.155,2.571,2.571l0,0h0.003v15.009
	c0,1.416-1.149,2.571-2.571,2.571l0,0h-2.358c-1.416,0-2.571-1.155-2.571-2.571l0,0V40.917c0-1.416,1.155-2.571,2.571-2.571l0,0
	H25.554z M11.676,47.1c1.428,0,2.574,1.143,2.574,2.571l0,0h0.003v6.255c0,1.416-1.146,2.571-2.574,2.571l0,0H9.324
	c-1.422,0-2.574-1.155-2.574-2.571l0,0v-6.255c0-1.425,1.152-2.571,2.574-2.571l0,0H11.676z"/>
</svg>
