<?xml version="1.0" encoding="utf-8"?>
<!-- Generator: Adobe Illustrator 26.5.0, SVG Export Plug-In . SVG Version: 6.00 Build 0)  -->
<svg version="1.1" id="图层_1" xmlns="http://www.w3.org/2000/svg" xmlns:xlink="http://www.w3.org/1999/xlink" x="0px" y="0px"
	 width="108px" height="108px" viewBox="0 0 108 108" style="enable-background:new 0 0 108 108;" xml:space="preserve">
<style type="text/css">
	.st0{fill-rule:evenodd;clip-rule:evenodd;fill:#E2F1FF;}
	.st1{opacity:0.2;fill-rule:evenodd;clip-rule:evenodd;}
	.st2{fill-rule:evenodd;clip-rule:evenodd;fill:#0F87F7;}
</style>
<path class="st0" d="M16,0h76c8.837,0,16,7.163,16,16v76c0,8.837-7.163,16-16,16H16c-8.837,0-16-7.163-16-16V16
	C0,7.163,7.163,0,16,0z"/>
<path class="st1" d="M84.75,73.923c0,1.419-1.152,2.58-2.574,2.58h-2.355c-1.428,0-2.574-1.158-2.574-2.58V32.58
	c0-1.431,1.146-2.58,2.574-2.58h2.355c1.422,0,2.574,1.149,2.574,2.58V73.923z M70.875,41.559c0-1.422-1.155-2.556-2.571-2.556
	h-2.358c-1.425,0-2.571,1.137-2.571,2.556v32.385c0,1.41,1.146,2.556,2.571,2.556h2.358c1.416,0,2.571-1.146,2.571-2.556V41.559z"/>
<path class="st2" d="M57,50.265c0-1.416-1.149-2.562-2.571-2.562h-2.358c-1.422,0-2.571,1.146-2.571,2.562v23.673
	c0,1.413,1.149,2.562,2.571,2.562h2.358c1.422,0,2.571-1.152,2.571-2.562V50.265z M43.125,58.92c0-1.416-1.149-2.571-2.571-2.571
	h-2.355c-1.416,0-2.571,1.155-2.571,2.571v15.009c0,1.416,1.155,2.571,2.571,2.571h2.358c1.422,0,2.571-1.155,2.571-2.571V58.92
	H43.125z M29.25,67.671c0-1.428-1.146-2.571-2.574-2.571h-2.352c-1.422,0-2.574,1.146-2.574,2.571v6.255
	c0,1.416,1.152,2.571,2.574,2.571h2.355c1.428,0,2.574-1.155,2.574-2.571v-6.255H29.25z"/>
</svg>
