<?xml version="1.0" encoding="utf-8"?>
<!-- Generator: Adobe Illustrator 26.5.0, SVG Export Plug-In . SVG Version: 6.00 Build 0)  -->
<svg version="1.1" id="图层_1" xmlns="http://www.w3.org/2000/svg" xmlns:xlink="http://www.w3.org/1999/xlink" x="0px" y="0px"
	 width="78px" height="72px" viewBox="0 0 78 72" style="enable-background:new 0 0 78 72;" xml:space="preserve">
<style type="text/css">
	.st0{opacity:0.2;fill-rule:evenodd;clip-rule:evenodd;}
</style>
<path id="path-1_00000095333137172299851560000002618186840187237800_" class="st0" d="M69.75,55.923c0,1.419-1.152,2.58-2.574,2.58
	h-2.355c-1.428,0-2.574-1.158-2.574-2.58V14.58c0-1.431,1.146-2.58,2.574-2.58h2.355c1.422,0,2.574,1.149,2.574,2.58V55.923z
	 M55.875,23.559c0-1.422-1.155-2.556-2.571-2.556h-2.358c-1.425,0-2.571,1.137-2.571,2.556v32.385c0,1.41,1.146,2.556,2.571,2.556
	h2.358c1.416,0,2.571-1.146,2.571-2.556V23.559z M42,32.265c0-1.416-1.149-2.562-2.571-2.562h-2.358
	c-1.422,0-2.571,1.146-2.571,2.562v23.673c0,1.413,1.149,2.562,2.571,2.562h2.358c1.422,0,2.571-1.152,2.571-2.562V32.265z
	 M28.125,40.92c0-1.416-1.149-2.571-2.571-2.571h-2.355c-1.416,0-2.571,1.155-2.571,2.571v15.009c0,1.416,1.155,2.571,2.571,2.571
	h2.358c1.422,0,2.571-1.155,2.571-2.571V40.92H28.125z M14.25,49.674c0-1.428-1.146-2.571-2.574-2.571H9.324
	c-1.422,0-2.574,1.146-2.574,2.571v6.255c0,1.416,1.152,2.571,2.574,2.571h2.355c1.428,0,2.574-1.155,2.574-2.571v-6.255H14.25z"/>
</svg>
