<?xml version="1.0" encoding="utf-8"?>
<!-- Generator: Adobe Illustrator 26.5.0, SVG Export Plug-In . SVG Version: 6.00 Build 0)  -->
<svg version="1.1" id="图层_1" xmlns="http://www.w3.org/2000/svg" xmlns:xlink="http://www.w3.org/1999/xlink" x="0px" y="0px"
	 width="78px" height="72px" viewBox="0 0 78 72" style="enable-background:new 0 0 78 72;" xml:space="preserve">
<style type="text/css">
	.st0{opacity:0.2;fill-rule:evenodd;clip-rule:evenodd;}
	.st1{fill-rule:evenodd;clip-rule:evenodd;fill:#0F87F7;}
</style>
<path id="path-1_00000011733945168258790520000004776318727336980365_" class="st0" d="M55.875,23.559
	c0-1.422-1.155-2.556-2.571-2.556h-2.358c-1.425,0-2.571,1.137-2.571,2.556v6.885c0,1.41,1.146,2.556,2.571,2.556h2.358
	c1.416,0,2.571-1.146,2.571-2.556V23.559z M69.75,30.423c0,1.419-1.152,2.58-2.574,2.58h-2.355c-1.428,0-2.574-1.158-2.574-2.58
	V14.58c0-1.431,1.146-2.58,2.574-2.58h2.355c1.422,0,2.574,1.149,2.574,2.58V30.423z"/>
<path id="path-3_00000160897812804538944540000011272709392563010440_" class="st1" d="M60.159,36c4.053,0,7.506,2.943,7.866,6.702
	c0.288,3.052-1.32,5.908-3.996,7.286l-0.246,0.121l3.765,5.145c0.699,1.02,0.45,2.427-0.558,3.135
	c-0.384,0.27-0.822,0.411-1.284,0.411c-0.678,0-1.319-0.312-1.741-0.841l-0.101-0.137l-5.028-6.978h-3.357v5.694
	c0,1.248-1.005,2.262-2.241,2.262c-1.182,0-2.154-0.934-2.233-2.108L51,56.538V38.364c0-1.248,0.975-2.275,2.205-2.359L53.367,36
	H60.159z M11.676,47.103c1.373,0,2.485,1.057,2.569,2.408l0.005,0.163l0.003,6.255c0,1.362-1.06,2.482-2.411,2.566L11.679,58.5
	H9.324c-1.367,0-2.485-1.068-2.569-2.409L6.75,55.929v-6.255c0-1.37,1.065-2.482,2.411-2.566l0.163-0.005H11.676z M25.554,38.349
	c1.367,0,2.482,1.068,2.566,2.409l0.005,0.162l0.003,15.009c0,1.362-1.062,2.482-2.408,2.566L25.557,58.5h-2.358
	c-1.362,0-2.482-1.068-2.566-2.409l-0.005-0.162V40.92c0-1.362,1.068-2.482,2.409-2.566l0.162-0.005H25.554z M39.429,29.703
	c1.422,0,2.571,1.146,2.571,2.562l0,0v23.673c0,1.41-1.149,2.562-2.571,2.562l0,0h-2.358c-1.422,0-2.571-1.149-2.571-2.562l0,0
	V32.265c0-1.416,1.149-2.562,2.571-2.562l0,0H39.429z M60.63,40.524h-5.145v5.808h5.145c1.629,0,2.952-1.302,2.952-2.904
	C63.582,41.826,62.259,40.524,60.63,40.524z"/>
</svg>
