<?xml version="1.0" encoding="utf-8"?>
<!-- Generator: Adobe Illustrator 26.5.0, SVG Export Plug-In . SVG Version: 6.00 Build 0)  -->
<svg version="1.1" id="图层_1" xmlns="http://www.w3.org/2000/svg" xmlns:xlink="http://www.w3.org/1999/xlink" x="0px" y="0px"
	 width="78px" height="72px" viewBox="0 0 78 72" style="enable-background:new 0 0 78 72;" xml:space="preserve">
<style type="text/css">
	.st0{opacity:0.2;fill-rule:evenodd;clip-rule:evenodd;}
	.st1{fill-rule:evenodd;clip-rule:evenodd;fill:#0F87F7;}
</style>
<path id="path-1_00000183928221537351033140000005305553928265641880_" class="st0" d="M14.25,49.674
	c0-1.428-1.146-2.571-2.574-2.571H9.324c-1.422,0-2.574,1.146-2.574,2.571v6.255c0,1.416,1.152,2.571,2.574,2.571h2.355
	c1.428,0,2.574-1.155,2.574-2.571L14.25,49.674z M28.125,40.92c0-1.416-1.149-2.571-2.571-2.571h-2.355
	c-1.416,0-2.571,1.155-2.571,2.571v15.009c0,1.416,1.155,2.571,2.571,2.571h2.358c1.422,0,2.571-1.155,2.571-2.571L28.125,40.92z
	 M42,32.265c0-1.416-1.149-2.562-2.571-2.562h-2.358c-1.422,0-2.571,1.146-2.571,2.562v23.673c0,1.413,1.149,2.562,2.571,2.562
	h2.358c1.422,0,2.571-1.152,2.571-2.562V32.265z M55.875,23.559c0-1.422-1.155-2.556-2.571-2.556h-2.358
	c-1.425,0-2.571,1.137-2.571,2.556v6.885c0,1.41,1.146,2.556,2.571,2.556h2.358c1.416,0,2.571-1.146,2.571-2.556V23.559z
	 M69.75,30.423c0,1.419-1.152,2.58-2.574,2.58h-2.355c-1.428,0-2.574-1.158-2.574-2.58V14.58c0-1.431,1.146-2.58,2.574-2.58h2.355
	c1.422,0,2.574,1.149,2.574,2.58V30.423z"/>
<path id="path-3_00000071530187418597811320000011346247469475947962_" class="st1" d="M63.582,43.428
	c0,1.602-1.323,2.904-2.952,2.904h-5.145v-5.808h5.145C62.259,40.524,63.582,41.826,63.582,43.428 M67.548,55.254l-3.765-5.145
	c2.823-1.326,4.539-4.263,4.242-7.407C67.665,38.943,64.212,36,60.159,36h-6.792C52.062,36,51,37.062,51,38.364v18.174
	c0,1.245,1.005,2.262,2.238,2.262c1.236,0,2.241-1.014,2.241-2.262v-5.694h3.357l5.028,6.978c0.417,0.612,1.107,0.978,1.842,0.978
	c0.462,0,0.9-0.141,1.284-0.411C67.998,57.681,68.247,56.274,67.548,55.254"/>
</svg>
