<?xml version="1.0" encoding="utf-8"?>
<!-- Generator: Adobe Illustrator 26.5.0, SVG Export Plug-In . SVG Version: 6.00 Build 0)  -->
<svg version="1.1" id="图层_1" xmlns="http://www.w3.org/2000/svg" xmlns:xlink="http://www.w3.org/1999/xlink" x="0px" y="0px"
	 width="36px" height="36px" viewBox="0 0 36 36" style="enable-background:new 0 0 36 36;" xml:space="preserve">
<style type="text/css">
	.st0{opacity:0.2;fill-rule:evenodd;clip-rule:evenodd;}
</style>
<path id="path-1_00000054960909226940205590000010933207228193660327_" class="st0" d="M29.861,17.062
	c-0.258,0.535-0.823,0.879-1.443,0.879h-3.584v8.97c0,1.153-0.994,2.09-2.218,2.09c-1.007,0-1.821-0.642-2.092-1.509
	c-0.077-0.179-0.123-0.374-0.123-0.581V8.49c0-0.62,0.407-1.174,1.02-1.393c0.62-0.213,1.311-0.061,1.747,0.408l6.435,7.96
	C30.016,15.9,30.116,16.527,29.861,17.062z M6.398,20.535l6.435,7.96c0.436,0.465,1.127,0.62,1.747,0.408
	c0.613-0.219,1.02-0.773,1.02-1.393V9.09c0-0.207-0.045-0.401-0.123-0.581C15.206,7.645,14.389,7,13.385,7
	c-1.224,0-2.218,0.937-2.218,2.09v8.97H7.583c-0.62,0-1.185,0.344-1.443,0.879C5.884,19.47,5.984,20.097,6.398,20.535z"/>
</svg>
