<?xml version="1.0" encoding="utf-8"?>
<!-- Generator: Adobe Illustrator 26.5.0, SVG Export Plug-In . SVG Version: 6.00 Build 0)  -->
<svg version="1.1" id="图层_1" xmlns="http://www.w3.org/2000/svg" xmlns:xlink="http://www.w3.org/1999/xlink" x="0px" y="0px"
	 width="36px" height="36px" viewBox="0 0 36 36" style="enable-background:new 0 0 36 36;" xml:space="preserve">
<style type="text/css">
	.st0{fill-rule:evenodd;clip-rule:evenodd;fill:#0F87F7;}
</style>
<path id="path-1_00000155858272583147115570000005715794708040201406_" class="st0" d="M26.388,25.999l-3.981-5.816
	c2.575-1.214,4.141-3.908,3.87-6.789c-0.33-3.445-3.479-6.144-7.174-6.144h-6.196c-1.19,0-2.158,0.973-2.158,2.169v17.758
	c0,1.141,0.917,2.073,2.042,2.073s2.042-0.929,2.042-2.073v-6.318h3.062l5.132,7.496c0.381,0.562,1.009,0.896,1.681,0.896
	c0.42,0,0.821-0.129,1.169-0.375C26.798,28.225,27.027,26.936,26.388,25.999z M22.224,14.06c0,1.468-1.208,2.663-2.691,2.663h-4.694
	v-5.324h4.692C21.017,11.399,22.224,12.592,22.224,14.06z"/>
</svg>
