<?xml version="1.0" encoding="utf-8"?>
<!-- Generator: Adobe Illustrator 26.5.0, SVG Export Plug-In . SVG Version: 6.00 Build 0)  -->
<svg version="1.1" id="图层_1" xmlns="http://www.w3.org/2000/svg" xmlns:xlink="http://www.w3.org/1999/xlink" x="0px" y="0px"
	 width="78px" height="72px" viewBox="0 0 78 72" style="enable-background:new 0 0 78 72;" xml:space="preserve">
<style type="text/css">
	.st0{fill-rule:evenodd;clip-rule:evenodd;fill:#0F87F7;}
</style>
<path id="path-1_00000069366052268575046570000001756801805402685337_" class="st0" d="M60.159,36c4.053,0,7.506,2.943,7.866,6.702
	c0.297,3.144-1.419,6.081-4.242,7.407l0,0l3.765,5.145c0.699,1.02,0.45,2.427-0.558,3.135c-0.384,0.27-0.822,0.411-1.284,0.411
	c-0.735,0-1.425-0.366-1.842-0.978l0,0l-5.028-6.978h-3.357v5.694c0,1.248-1.005,2.262-2.241,2.262C52.005,58.8,51,57.783,51,56.538
	l0,0V38.364C51,37.062,52.062,36,53.367,36l0,0H60.159z M11.676,47.103c1.428,0,2.574,1.143,2.574,2.571l0,0l0.003,6.255
	c0,1.416-1.146,2.571-2.574,2.571l0,0H9.324c-1.422,0-2.574-1.155-2.574-2.571l0,0v-6.255c0-1.425,1.152-2.571,2.574-2.571l0,0
	H11.676z M25.554,38.349c1.422,0,2.571,1.155,2.571,2.571l0,0l0.003,15.009c0,1.416-1.149,2.571-2.571,2.571l0,0h-2.358
	c-1.416,0-2.571-1.155-2.571-2.571l0,0V40.92c0-1.416,1.155-2.571,2.571-2.571l0,0H25.554z M39.429,29.703
	c1.422,0,2.571,1.146,2.571,2.562l0,0v23.673c0,1.41-1.149,2.562-2.571,2.562l0,0h-2.358c-1.422,0-2.571-1.149-2.571-2.562l0,0
	V32.265c0-1.416,1.149-2.562,2.571-2.562l0,0H39.429z M60.63,40.524h-5.145v5.808h5.145c1.629,0,2.952-1.302,2.952-2.904
	C63.582,41.826,62.259,40.524,60.63,40.524L60.63,40.524z M67.176,12c1.422,0,2.574,1.149,2.574,2.58v15.843
	c0,1.419-1.152,2.58-2.574,2.58h-2.355c-1.428,0-2.574-1.158-2.574-2.58V14.58c0-1.431,1.146-2.58,2.574-2.58H67.176z
	 M53.304,21.003c1.416,0,2.571,1.134,2.571,2.556l0,0v6.885c0,1.41-1.155,2.556-2.571,2.556l0,0h-2.358
	c-1.425,0-2.571-1.146-2.571-2.556l0,0v-6.885c0-1.419,1.146-2.556,2.571-2.556l0,0H53.304z"/>
</svg>
