<?xml version="1.0" encoding="utf-8"?>
<!-- Generator: Adobe Illustrator 26.5.0, SVG Export Plug-In . SVG Version: 6.00 Build 0)  -->
<svg version="1.1" id="图层_1" xmlns="http://www.w3.org/2000/svg" xmlns:xlink="http://www.w3.org/1999/xlink" x="0px" y="0px"
	 width="78px" height="72px" viewBox="0 0 78 72" style="enable-background:new 0 0 78 72;" xml:space="preserve">
<style type="text/css">
	.st0{opacity:0.2;fill-rule:evenodd;clip-rule:evenodd;}
	.st1{fill-rule:evenodd;clip-rule:evenodd;fill:#FF4D4F;}
</style>
<path id="path-1_00000160190494191869637690000011487012295234714813_" class="st0" d="M69.75,30.423c0,1.419-1.152,2.58-2.574,2.58
	h-2.355c-1.428,0-2.574-1.158-2.574-2.58V14.58c0-1.431,1.146-2.58,2.574-2.58h2.355c1.422,0,2.574,1.149,2.574,2.58V30.423z
	 M55.875,23.559c0-1.422-1.155-2.556-2.571-2.556h-2.358c-1.425,0-2.571,1.137-2.571,2.556v6.885c0,1.41,1.146,2.556,2.571,2.556
	h2.358c1.416,0,2.571-1.146,2.571-2.556V23.559z M42,32.265c0-1.416-1.149-2.562-2.571-2.562h-2.358
	c-1.422,0-2.571,1.146-2.571,2.562v23.673c0,1.413,1.149,2.562,2.571,2.562h2.358c1.422,0,2.571-1.152,2.571-2.562V32.265z
	 M28.125,40.92c0-1.416-1.149-2.571-2.571-2.571h-2.355c-1.416,0-2.571,1.155-2.571,2.571v15.009c0,1.416,1.155,2.571,2.571,2.571
	h2.358c1.422,0,2.571-1.155,2.571-2.571L28.125,40.92L28.125,40.92z M14.25,49.674c0-1.428-1.146-2.571-2.574-2.571H9.324
	c-1.422,0-2.574,1.146-2.574,2.571v6.255c0,1.416,1.152,2.571,2.574,2.571h2.355c1.428,0,2.574-1.155,2.574-2.571L14.25,49.674
	L14.25,49.674z"/>
<path class="st1" d="M63.039,47.703l6.003-6.006c1.095-1.095,1.095-2.874,0-3.975c-0.546-0.549-1.263-0.822-1.986-0.822
	c-0.717,0-1.434,0.273-1.98,0.822l-6.012,6.003l-6.012-6.003c-0.546-0.549-1.263-0.822-1.98-0.822c-0.723,0-1.44,0.273-1.986,0.822
	c-1.095,1.098-1.095,2.877,0,3.975l6,6.006l-6,6.006c-1.095,1.095-1.095,2.874,0,3.972c0.54,0.552,1.269,0.825,1.98,0.825
	c0.723,0,1.44-0.273,1.986-0.825l6.012-6.003l6.012,6.003c0.546,0.552,1.263,0.825,1.986,0.825c0.714,0,1.44-0.273,1.98-0.825
	c1.095-1.095,1.095-2.874,0-3.972L63.039,47.703z"/>
</svg>
