<?xml version="1.0" encoding="utf-8"?>
<!-- Generator: Adobe Illustrator 26.5.0, SVG Export Plug-In . SVG Version: 6.00 Build 0)  -->
<svg version="1.1" id="图层_1" xmlns="http://www.w3.org/2000/svg" xmlns:xlink="http://www.w3.org/1999/xlink" x="0px" y="0px"
	 width="78px" height="72px" viewBox="0 0 78 72" style="enable-background:new 0 0 78 72;" xml:space="preserve">
<style type="text/css">
	.st0{opacity:0.2;fill-rule:evenodd;clip-rule:evenodd;}
	.st1{fill-rule:evenodd;clip-rule:evenodd;fill:#0F87F7;}
</style>
<path class="st0" d="M69.75,55.923c0,1.419-1.152,2.58-2.574,2.58h-2.355c-1.428,0-2.574-1.158-2.574-2.58V14.58
	c0-1.431,1.146-2.58,2.574-2.58h2.355c1.422,0,2.574,1.149,2.574,2.58V55.923z"/>
<path id="path-3_00000138537597708365525850000009408891909058793386_" class="st1" d="M53.304,21c1.416,0,2.571,1.134,2.571,2.556
	l0,0v32.385c0,1.41-1.155,2.556-2.571,2.556l0,0h-2.358c-1.425,0-2.571-1.146-2.571-2.556l0,0V23.556
	c0-1.419,1.146-2.556,2.571-2.556l0,0H53.304z M39.429,29.7c1.422,0,2.571,1.146,2.571,2.562l0,0v23.673
	c0,1.41-1.149,2.562-2.571,2.562l0,0h-2.358c-1.422,0-2.571-1.149-2.571-2.562l0,0V32.262c0-1.416,1.149-2.562,2.571-2.562l0,0
	H39.429z M25.554,38.346c1.422,0,2.571,1.155,2.571,2.571l0,0h0.003v15.009c0,1.416-1.149,2.571-2.571,2.571l0,0h-2.358
	c-1.416,0-2.571-1.155-2.571-2.571l0,0V40.917c0-1.416,1.155-2.571,2.571-2.571l0,0H25.554z M11.676,47.1
	c1.428,0,2.574,1.143,2.574,2.571l0,0h0.003v6.255c0,1.416-1.146,2.571-2.574,2.571l0,0H9.324c-1.422,0-2.574-1.155-2.574-2.571l0,0
	v-6.255c0-1.425,1.152-2.571,2.574-2.571l0,0H11.676z"/>
</svg>
