<?xml version="1.0" encoding="utf-8"?>
<!-- Generator: Adobe Illustrator 26.5.0, SVG Export Plug-In . SVG Version: 6.00 Build 0)  -->
<svg version="1.1" id="图层_1" xmlns="http://www.w3.org/2000/svg" xmlns:xlink="http://www.w3.org/1999/xlink" x="0px" y="0px"
	 width="78px" height="72px" viewBox="0 0 78 72" style="enable-background:new 0 0 78 72;" xml:space="preserve">
<style type="text/css">
	.st0{opacity:0.2;fill-rule:evenodd;clip-rule:evenodd;}
</style>
<path id="path-1_00000073680228308643048610000005350751209345956025_" class="st0" d="M25.038,22.827
	c-1.533-1.533-4.023-1.533-5.556,0c-1.533,1.533-1.533,4.023,0,5.556L34.5,43.401v12.54c0,1.413,1.149,2.562,2.571,2.562h2.358
	c1.422,0,2.571-1.152,2.571-2.562v-5.04l9.657,9.654c0.768,0.768,1.773,1.149,2.778,1.149c1.005,0,2.01-0.384,2.778-1.149
	c1.533-1.533,1.533-4.023,0-5.556L25.038,22.827z M11.676,47.103H9.324c-1.422,0-2.574,1.146-2.574,2.571v6.255
	c0,1.416,1.152,2.571,2.574,2.571h2.355c1.428,0,2.574-1.155,2.574-2.571v-6.255H14.25C14.25,48.246,13.104,47.103,11.676,47.103z
	 M67.176,12h-2.355c-1.428,0-2.574,1.149-2.574,2.58v34.353l7.416,7.419c0.024-0.144,0.087-0.276,0.087-0.429V14.58
	C69.75,13.149,68.598,12,67.176,12z M55.875,23.559c0-1.422-1.155-2.556-2.571-2.556h-2.358c-1.425,0-2.571,1.137-2.571,2.556
	v11.502l7.5,7.5V23.559z M25.554,38.349h-2.355c-1.416,0-2.571,1.155-2.571,2.571v15.009c0,1.416,1.155,2.571,2.571,2.571h2.358
	c1.422,0,2.571-1.155,2.571-2.571V40.92h-0.003C28.125,39.504,26.976,38.349,25.554,38.349z"/>
</svg>
