<?xml version="1.0" encoding="utf-8"?>
<!-- Generator: Adobe Illustrator 26.5.0, SVG Export Plug-In . SVG Version: 6.00 Build 0)  -->
<svg version="1.1" id="图层_1" xmlns="http://www.w3.org/2000/svg" xmlns:xlink="http://www.w3.org/1999/xlink" x="0px" y="0px"
	 width="24px" height="24px" viewBox="0 0 24 24" style="enable-background:new 0 0 24 24;" xml:space="preserve">
<path d="M19.8,17.5c1.4-1.6,2.2-3.7,2.2-5.8c0-5.1-4.5-9.3-10-9.3c-5.5,0-10,4.2-10,9.3c0,5.1,4.5,9.3,10,9.3c1.1,0,2.2-0.2,3.3-0.5
	c0.9,0.2,3.1,0.8,4,1l0.2,0c0.3,0,0.6-0.1,0.8-0.4c0.2-0.2,0.3-0.5,0.2-0.9C20.3,19.7,20,18.4,19.8,17.5z M8.5,13c-0.6,0-1-0.4-1-1
	s0.4-1,1-1s1,0.4,1,1S9.1,13,8.5,13z M12,13c-0.6,0-1-0.4-1-1s0.4-1,1-1c0.6,0,1,0.4,1,1S12.6,13,12,13z M15.5,13c-0.6,0-1-0.4-1-1
	s0.4-1,1-1c0.6,0,1,0.4,1,1S16.1,13,15.5,13z"/>
</svg>
