<?xml version="1.0" encoding="utf-8"?>
<!-- Generator: Adobe Illustrator 26.5.0, SVG Export Plug-In . SVG Version: 6.00 Build 0)  -->
<svg version="1.1" id="图层_1" xmlns="http://www.w3.org/2000/svg" xmlns:xlink="http://www.w3.org/1999/xlink" x="0px" y="0px"
	 width="22px" height="22px" viewBox="0 0 22 22" style="enable-background:new 0 0 22 22;" xml:space="preserve">
<style type="text/css">
	.st0{fill-rule:evenodd;clip-rule:evenodd;}
</style>
<path id="path-1_00000131366021068438514860000005868879689113806492_" class="st0" d="M15.583,2.521
	c-2.151,0-3.896,1.744-3.896,3.896s1.744,3.896,3.896,3.896s3.896-1.744,3.896-3.896S17.735,2.521,15.583,2.521L15.583,2.521z
	 M15.583,3.713c1.491,0,2.704,1.213,2.704,2.704s-1.213,2.704-2.704,2.704c-1.491,0-2.704-1.213-2.704-2.704
	S14.092,3.713,15.583,3.713L15.583,3.713z M18.104,17.588c0,0.285-0.231,0.516-0.515,0.516h-4.011c-0.283,0-0.515-0.231-0.515-0.516
	v-4.009c0-0.285,0.232-0.516,0.515-0.516h4.011c0.284,0,0.515,0.231,0.515,0.516V17.588z M17.471,11.917h-3.775
	c-0.981,0-1.779,0.797-1.779,1.779v3.775c0,0.982,0.798,1.779,1.779,1.779h3.775c0.981,0,1.779-0.798,1.779-1.779v-3.775
	C19.25,12.714,18.452,11.917,17.471,11.917L17.471,11.917z M8.789,17.471c0,0.268-0.217,0.485-0.485,0.485H4.529
	c-0.268,0-0.485-0.217-0.485-0.485v-3.775c0-0.268,0.217-0.485,0.485-0.485h3.775c0.268,0,0.485,0.217,0.485,0.485V17.471z
	 M8.304,11.917H4.529c-0.981,0-1.779,0.797-1.779,1.779v3.775c0,0.982,0.798,1.779,1.779,1.779h3.775
	c0.981,0,1.779-0.798,1.779-1.779v-3.775C10.083,12.714,9.285,11.917,8.304,11.917L8.304,11.917z M8.789,8.304
	c0,0.268-0.217,0.485-0.485,0.485H4.529c-0.268,0-0.485-0.217-0.485-0.485V4.529c0-0.268,0.217-0.485,0.485-0.485h3.775
	c0.268,0,0.485,0.217,0.485,0.485V8.304z M8.304,2.75H4.529c-0.981,0-1.779,0.797-1.779,1.779v3.775
	c0,0.982,0.798,1.779,1.779,1.779h3.775c0.981,0,1.779-0.797,1.779-1.779V4.529C10.083,3.547,9.285,2.75,8.304,2.75L8.304,2.75z"/>
</svg>
