<?xml version="1.0" encoding="utf-8"?>
<!-- Generator: Adobe Illustrator 26.5.0, SVG Export Plug-In . SVG Version: 6.00 Build 0)  -->
<svg version="1.1" id="图层_1" xmlns="http://www.w3.org/2000/svg" xmlns:xlink="http://www.w3.org/1999/xlink" x="0px" y="0px"
	 width="22px" height="22px" viewBox="0 0 22 22" style="enable-background:new 0 0 22 22;" xml:space="preserve">
<style type="text/css">
	.st0{fill-rule:evenodd;clip-rule:evenodd;}
</style>
<path id="path-1_00000034772610192819336090000013549408442549147560_" class="st0" d="M15.583,2.521
	c-2.151,0-3.896,1.744-3.896,3.896s1.744,3.896,3.896,3.896s3.896-1.744,3.896-3.896S17.735,2.521,15.583,2.521L15.583,2.521z
	 M17.471,11.917h-3.775c-0.981,0-1.779,0.797-1.779,1.779v3.775c0,0.982,0.798,1.779,1.779,1.779h3.775
	c0.981,0,1.779-0.798,1.779-1.779v-3.775C19.25,12.714,18.452,11.917,17.471,11.917L17.471,11.917z M8.304,11.917H4.529
	c-0.981,0-1.779,0.797-1.779,1.779v3.775c0,0.982,0.798,1.779,1.779,1.779h3.775c0.981,0,1.779-0.798,1.779-1.779v-3.775
	C10.083,12.714,9.285,11.917,8.304,11.917L8.304,11.917z M8.304,2.75H4.529c-0.981,0-1.779,0.797-1.779,1.779v3.775
	c0,0.982,0.798,1.779,1.779,1.779h3.775c0.981,0,1.779-0.797,1.779-1.779V4.529C10.083,3.547,9.285,2.75,8.304,2.75L8.304,2.75z"/>
</svg>
