<?xml version="1.0" encoding="utf-8"?>
<!-- Generator: Adobe Illustrator 26.5.0, SVG Export Plug-In . SVG Version: 6.00 Build 0)  -->
<svg version="1.1" id="图层_1" xmlns="http://www.w3.org/2000/svg" xmlns:xlink="http://www.w3.org/1999/xlink" x="0px" y="0px"
	 width="22px" height="22px" viewBox="0 0 22 22" style="enable-background:new 0 0 22 22;" xml:space="preserve">
<style type="text/css">
	.st0{fill-rule:evenodd;clip-rule:evenodd;}
</style>
<path class="st0" d="M15.9,10.5c-0.1,0.2-0.4,0.4-0.7,0.4h-2v3.9c0,0.4-0.3,0.7-0.7,0.7h-3c-0.4,0-0.7-0.3-0.7-0.7v-3.9h-2
	c-0.3,0-0.6-0.1-0.7-0.4C6,10.3,6,10,6.2,9.8l4.2-4c0.1-0.2,0.4-0.3,0.6-0.3c0.3,0,0.5,0.1,0.7,0.3l4.2,4c0,0.1,0.1,0.2,0.1,0.4
	C16,10.3,16,10.4,15.9,10.5z"/>
</svg>
