<?xml version="1.0" encoding="utf-8"?>
<!-- Generator: Adobe Illustrator 26.5.0, SVG Export Plug-In . SVG Version: 6.00 Build 0)  -->
<svg version="1.1" id="图层_1" xmlns="http://www.w3.org/2000/svg" xmlns:xlink="http://www.w3.org/1999/xlink" x="0px" y="0px"
	 width="24px" height="24px" viewBox="0 0 24 24" style="enable-background:new 0 0 24 24;" xml:space="preserve">
<style type="text/css">
	.st0{fill-rule:evenodd;clip-rule:evenodd;}
</style>
<path id="path-1_00000039101582588923288700000011113022902421060516_" class="st0" d="M21.3,13.3c-0.6,1.5-1.5,2.9-2.6,3.9l-0.9-1
	c1-0.9,1.8-2.1,2.3-3.4c0.2-0.4,0.2-0.8,0-1.2c-1.3-3.4-4.5-5.7-8.1-5.7c-1.2,0-2.4,0.3-3.5,0.8l-1-1c1.4-0.7,2.9-1.1,4.5-1.1
	c4.1,0,7.8,2.6,9.3,6.5C21.6,11.7,21.6,12.5,21.3,13.3z M14.3,12.7c0-0.2,0.1-0.3,0.1-0.5c0-1.4-1.1-2.5-2.4-2.5
	c-0.2,0-0.3,0-0.5,0.1l-1-1.1c0.5-0.2,1-0.3,1.5-0.3c2,0,3.7,1.7,3.7,3.8c0,0.6-0.1,1.1-0.3,1.6L14.3,12.7z M12,18.4
	c-3.6,0-6.8-2.2-8.1-5.7c-0.2-0.4-0.2-0.8,0-1.2C4.4,10.2,5.2,9,6.3,8.1l2.4,2.5c-0.2,0.5-0.3,1-0.3,1.6C8.3,14.3,10,16,12,16
	c0.5,0,1-0.1,1.5-0.3l2,2.1C14.4,18.2,13.2,18.4,12,18.4z M12.5,14.6c-0.2,0-0.3,0.1-0.5,0.1c-1.3,0-2.4-1.1-2.4-2.5
	c0-0.2,0-0.3,0.1-0.5L12.5,14.6z M16.7,17l-2.1-2.2L7.3,7.3L5.1,4.9c-0.3-0.3-0.7-0.3-0.9,0c-0.3,0.3-0.3,0.7,0,1l1.2,1.2
	c-1.1,1-2,2.4-2.6,3.9c-0.3,0.7-0.3,1.5,0,2.2c1.5,4,5.2,6.5,9.3,6.5c1.6,0,3.1-0.4,4.5-1.1l1.5,1.6c0.1,0.1,0.3,0.2,0.5,0.2
	c0.2,0,0.3-0.1,0.5-0.2c0.3-0.3,0.3-0.7,0-1L17.6,18L16.7,17z"/>
</svg>
