<?xml version="1.0" encoding="utf-8"?>
<!-- Generator: Adobe Illustrator 26.5.0, SVG Export Plug-In . SVG Version: 6.00 Build 0)  -->
<svg version="1.1" id="图层_1" xmlns="http://www.w3.org/2000/svg" xmlns:xlink="http://www.w3.org/1999/xlink" x="0px" y="0px"
	 width="24px" height="24px" viewBox="0 0 24 24" style="enable-background:new 0 0 24 24;" xml:space="preserve">
<style type="text/css">
	.st0{fill-rule:evenodd;clip-rule:evenodd;}
</style>
<path id="path-1_00000083768887051121674100000002131125849388990853_" class="st0" d="M12,8.2c-2,0-3.7,1.7-3.7,3.8
	s1.6,3.8,3.7,3.8c2,0,3.7-1.7,3.7-3.8S14,8.2,12,8.2z M12,9.6c1.3,0,2.4,1.1,2.4,2.4c0,1.3-1.1,2.4-2.4,2.4S9.6,13.3,9.6,12
	C9.6,10.7,10.7,9.6,12,9.6L12,9.6z M12,5.8c-3.6,0-6.8,2.2-8.1,5.6c-0.2,0.4-0.2,0.8,0,1.2c1.3,3.4,4.5,5.6,8.1,5.6
	c3.6,0,6.8-2.2,8.1-5.6c0.2-0.4,0.2-0.8,0-1.2C18.8,8,15.6,5.8,12,5.8z M12,19.5c-4.1,0-7.8-2.5-9.3-6.4c-0.3-0.7-0.3-1.5,0-2.2
	C4.2,7,7.9,4.5,12,4.5s7.8,2.5,9.3,6.4c0.3,0.7,0.3,1.5,0,2.2C19.8,17,16.1,19.5,12,19.5L12,19.5z"/>
</svg>
