<?xml version="1.0" encoding="utf-8"?>
<!-- Generator: Adobe Illustrator 26.5.0, SVG Export Plug-In . SVG Version: 6.00 Build 0)  -->
<svg version="1.1" id="图层_1" xmlns="http://www.w3.org/2000/svg" xmlns:xlink="http://www.w3.org/1999/xlink" x="0px" y="0px"
	 width="22px" height="22px" viewBox="0 0 22 22" style="enable-background:new 0 0 22 22;" xml:space="preserve">
<style type="text/css">
	.st0{fill-rule:evenodd;clip-rule:evenodd;}
</style>
<path id="path-1_00000148653573664658875600000014560660818300932502_" class="st0" d="M18.792,13.484
	c0-0.385-0.308-0.688-0.688-0.688H3.896c-0.379,0-0.688,0.302-0.688,0.688v2.778c0,0.385,0.308,0.697,0.688,0.697h14.208
	c0.38,0,0.688-0.312,0.688-0.697V13.484z M20.167,13.484v2.778c0,1.146-0.925,2.072-2.062,2.072H3.896
	c-1.138,0-2.062-0.926-2.062-2.072v-2.778c0-1.137,0.925-2.072,2.062-2.072h11.05v-1.118l-0.169-0.11
	c-0.447-0.449-0.447-1.173,0-1.623c0.447-0.449,1.172-0.449,1.621,0c0.447,0.449,0.447,1.173,0,1.623l-0.169,0.11v1.118h1.875
	C19.242,11.413,20.167,12.347,20.167,13.484z M18.088,7.773c0.25-0.248,0.25-0.66,0-0.908c-1.379-1.384-3.621-1.384-5,0
	c-0.25,0.247-0.25,0.66,0,0.908c0.251,0.257,0.657,0.257,0.908,0c0.877-0.88,2.306-0.88,3.184,0c0.125,0.128,0.29,0.192,0.454,0.192
	S17.962,7.902,18.088,7.773z M19.933,5.922c0.25-0.247,0.251-0.66,0-0.907c-1.16-1.164-2.702-1.806-4.343-1.806
	c-1.64,0-3.183,0.642-4.342,1.806c-0.251,0.247-0.251,0.66,0,0.907c0.25,0.257,0.656,0.257,0.907,0
	c0.918-0.917,2.138-1.43,3.435-1.43c1.298,0,2.518,0.513,3.436,1.43c0.126,0.128,0.29,0.193,0.454,0.193S19.807,6.05,19.933,5.922z
	 M10.866,13.952c-0.506,0-0.917,0.412-0.917,0.926c0,0.504,0.411,0.917,0.917,0.917c0.506,0,0.917-0.412,0.917-0.917
	C11.783,14.364,11.372,13.952,10.866,13.952z M8.155,13.952c-0.506,0-0.917,0.412-0.917,0.926c0,0.504,0.411,0.917,0.917,0.917
	s0.917-0.412,0.917-0.917C9.071,14.364,8.661,13.952,8.155,13.952z M6.36,14.877c0,0.504-0.411,0.917-0.917,0.917
	c-0.507,0-0.917-0.412-0.917-0.917c0-0.513,0.41-0.926,0.917-0.926C5.949,13.952,6.36,14.364,6.36,14.877L6.36,14.877z"/>
</svg>
